<mxfile host="Electron" modified="2024-01-01T15:36:32.471Z" agent="Mozilla/5.0 (Macintosh; Intel Mac OS X 10_15_7) AppleWebKit/537.36 (KHTML, like Gecko) draw.io/22.1.15 Chrome/120.0.6099.109 Electron/28.1.0 Safari/537.36" etag="7q9ePudmVUax4gP0wL23" version="22.1.15" type="device" pages="4">
  <diagram name="Authorization Code Flow" id="13e1069c-82ec-6db2-03f1-153e76fe0fe0">
    <mxGraphModel dx="2067" dy="1983" grid="1" gridSize="10" guides="1" tooltips="1" connect="1" arrows="1" fold="1" page="1" pageScale="1" pageWidth="1100" pageHeight="850" background="none" math="0" shadow="0">
      <root>
        <mxCell id="0" />
        <mxCell id="1" parent="0" />
        <mxCell id="ap6kXIPFRNni-n1Ezb-G-11" value="" style="group" parent="1" vertex="1" connectable="0">
          <mxGeometry x="120" y="777" width="330" height="170" as="geometry" />
        </mxCell>
        <mxCell id="ap6kXIPFRNni-n1Ezb-G-12" value="" style="rounded=1;whiteSpace=wrap;html=1;strokeWidth=2;fontSize=30;fontColor=#000000;labelPosition=center;verticalLabelPosition=top;align=center;verticalAlign=bottom;" parent="ap6kXIPFRNni-n1Ezb-G-11" vertex="1">
          <mxGeometry x="-10" width="340" height="170" as="geometry" />
        </mxCell>
        <mxCell id="ap6kXIPFRNni-n1Ezb-G-13" value="&lt;span style=&quot;color: rgb(0, 0, 0); font-family: Helvetica; font-style: normal; font-variant-ligatures: normal; font-variant-caps: normal; font-weight: 400; letter-spacing: normal; orphans: 2; text-align: center; text-indent: 0px; text-transform: none; widows: 2; word-spacing: 0px; -webkit-text-stroke-width: 0px; background-color: rgb(251, 251, 251); text-decoration-thickness: initial; text-decoration-style: initial; text-decoration-color: initial; float: none; display: inline !important;&quot;&gt;&lt;font style=&quot;font-size: 22px;&quot;&gt;Front-Channel&lt;/font&gt;&lt;/span&gt;" style="text;whiteSpace=wrap;html=1;rotation=-90;" parent="ap6kXIPFRNni-n1Ezb-G-11" vertex="1">
          <mxGeometry x="-66.64" y="67.93" width="150.51" height="29.03" as="geometry" />
        </mxCell>
        <mxCell id="_ICmuHY_S-w1vZ45T4bN-10" value="" style="group" parent="1" vertex="1" connectable="0">
          <mxGeometry x="387" y="473" width="677" height="296" as="geometry" />
        </mxCell>
        <mxCell id="hWFgnr9667ABjFhtj44m-9" value="" style="group" parent="_ICmuHY_S-w1vZ45T4bN-10" vertex="1" connectable="0">
          <mxGeometry x="383" y="116" width="250" height="50" as="geometry" />
        </mxCell>
        <mxCell id="hWFgnr9667ABjFhtj44m-4" value="" style="html=1;verticalAlign=bottom;endArrow=open;dashed=1;endSize=8;labelBackgroundColor=none;fontFamily=Verdana;fontSize=12;elbow=vertical;" parent="hWFgnr9667ABjFhtj44m-9" edge="1">
          <mxGeometry relative="1" as="geometry">
            <mxPoint y="50" as="targetPoint" />
            <mxPoint x="130" as="sourcePoint" />
          </mxGeometry>
        </mxCell>
        <mxCell id="hWFgnr9667ABjFhtj44m-7" value="" style="html=1;verticalAlign=bottom;endArrow=none;dashed=1;endSize=8;labelBackgroundColor=none;fontFamily=Verdana;fontSize=12;elbow=vertical;endFill=0;" parent="hWFgnr9667ABjFhtj44m-9" edge="1">
          <mxGeometry relative="1" as="geometry">
            <mxPoint x="130" as="targetPoint" />
            <mxPoint x="250" as="sourcePoint" />
          </mxGeometry>
        </mxCell>
        <mxCell id="hWFgnr9667ABjFhtj44m-8" value="&lt;span style=&quot;background-color: rgb(103, 171, 159); font-size: 12px;&quot;&gt;/userinfo&lt;/span&gt; endpoint" style="edgeLabel;html=1;align=center;verticalAlign=bottom;resizable=0;points=[];labelPosition=center;verticalLabelPosition=top;fontSize=12;" parent="hWFgnr9667ABjFhtj44m-7" vertex="1" connectable="0">
          <mxGeometry x="0.0994" relative="1" as="geometry">
            <mxPoint as="offset" />
          </mxGeometry>
        </mxCell>
        <mxCell id="_ICmuHY_S-w1vZ45T4bN-6" value="" style="rounded=1;whiteSpace=wrap;html=1;strokeWidth=2;fontSize=30;fontColor=#000000;" parent="_ICmuHY_S-w1vZ45T4bN-10" vertex="1">
          <mxGeometry x="4.5" width="672.5" height="296" as="geometry" />
        </mxCell>
        <mxCell id="_ICmuHY_S-w1vZ45T4bN-8" value="&lt;span style=&quot;color: rgb(0, 0, 0); font-family: Helvetica; font-style: normal; font-variant-ligatures: normal; font-variant-caps: normal; font-weight: 400; letter-spacing: normal; orphans: 2; text-align: center; text-indent: 0px; text-transform: none; widows: 2; word-spacing: 0px; -webkit-text-stroke-width: 0px; background-color: rgb(251, 251, 251); text-decoration-thickness: initial; text-decoration-style: initial; text-decoration-color: initial; float: none; display: inline !important;&quot;&gt;&lt;font style=&quot;font-size: 22px;&quot;&gt;Back-Channel&lt;/font&gt;&lt;/span&gt;" style="text;whiteSpace=wrap;html=1;rotation=-90;" parent="_ICmuHY_S-w1vZ45T4bN-10" vertex="1">
          <mxGeometry x="-50" y="106" width="160" height="60" as="geometry" />
        </mxCell>
        <mxCell id="hWFgnr9667ABjFhtj44m-12" value="" style="group" parent="_ICmuHY_S-w1vZ45T4bN-10" vertex="1" connectable="0">
          <mxGeometry x="383" y="-21" width="250" height="50" as="geometry" />
        </mxCell>
        <mxCell id="hWFgnr9667ABjFhtj44m-13" value="" style="html=1;verticalAlign=bottom;endArrow=open;dashed=1;endSize=8;labelBackgroundColor=none;fontFamily=Verdana;fontSize=12;elbow=vertical;" parent="hWFgnr9667ABjFhtj44m-12" edge="1">
          <mxGeometry relative="1" as="geometry">
            <mxPoint y="50" as="targetPoint" />
            <mxPoint x="130" as="sourcePoint" />
          </mxGeometry>
        </mxCell>
        <mxCell id="hWFgnr9667ABjFhtj44m-14" value="" style="html=1;verticalAlign=bottom;endArrow=none;dashed=1;endSize=8;labelBackgroundColor=none;fontFamily=Verdana;fontSize=12;elbow=vertical;endFill=0;" parent="hWFgnr9667ABjFhtj44m-12" edge="1">
          <mxGeometry relative="1" as="geometry">
            <mxPoint x="130" as="targetPoint" />
            <mxPoint x="250" as="sourcePoint" />
          </mxGeometry>
        </mxCell>
        <mxCell id="hWFgnr9667ABjFhtj44m-15" value="&lt;span style=&quot;background-color: rgb(103, 171, 159); font-size: 12px;&quot;&gt;/token&lt;/span&gt; endpoint" style="edgeLabel;html=1;align=center;verticalAlign=bottom;resizable=0;points=[];labelPosition=center;verticalLabelPosition=top;fontSize=12;" parent="hWFgnr9667ABjFhtj44m-14" vertex="1" connectable="0">
          <mxGeometry x="0.0994" relative="1" as="geometry">
            <mxPoint as="offset" />
          </mxGeometry>
        </mxCell>
        <mxCell id="_ICmuHY_S-w1vZ45T4bN-9" value="" style="group" parent="1" vertex="1" connectable="0">
          <mxGeometry x="100" y="130" width="760" height="333" as="geometry" />
        </mxCell>
        <mxCell id="IGa3jXh2fTy8C1wKVysX-18" value="" style="rounded=1;whiteSpace=wrap;html=1;strokeWidth=2;fontSize=30;fontColor=#000000;labelPosition=center;verticalLabelPosition=top;align=center;verticalAlign=bottom;" parent="_ICmuHY_S-w1vZ45T4bN-9" vertex="1">
          <mxGeometry x="4.840764331210191" width="755.1592356687898" height="333" as="geometry" />
        </mxCell>
        <mxCell id="_ICmuHY_S-w1vZ45T4bN-7" value="&lt;span style=&quot;color: rgb(0, 0, 0); font-family: Helvetica; font-style: normal; font-variant-ligatures: normal; font-variant-caps: normal; font-weight: 400; letter-spacing: normal; orphans: 2; text-align: center; text-indent: 0px; text-transform: none; widows: 2; word-spacing: 0px; -webkit-text-stroke-width: 0px; background-color: rgb(251, 251, 251); text-decoration-thickness: initial; text-decoration-style: initial; text-decoration-color: initial; float: none; display: inline !important;&quot;&gt;&lt;font style=&quot;font-size: 22px;&quot;&gt;Front-Channel&lt;/font&gt;&lt;/span&gt;" style="text;whiteSpace=wrap;html=1;rotation=-90;" parent="_ICmuHY_S-w1vZ45T4bN-9" vertex="1">
          <mxGeometry x="-48.40764331210191" y="127.82903225806452" width="154.9044585987261" height="64.45161290322581" as="geometry" />
        </mxCell>
        <mxCell id="7baba1c4bc27f4b0-3" value="AS/OP" style="shape=umlLifeline;perimeter=lifelinePerimeter;whiteSpace=wrap;html=1;container=1;collapsible=0;recursiveResize=0;outlineConnect=0;rounded=1;shadow=0;comic=0;labelBackgroundColor=none;strokeWidth=2;fontFamily=Verdana;fontSize=12;align=center;fillColor=#fff2cc;strokeColor=#d6b656;" parent="1" vertex="1">
          <mxGeometry x="715" y="80" width="100" height="800" as="geometry" />
        </mxCell>
        <mxCell id="IGa3jXh2fTy8C1wKVysX-20" value="Request userinfo using&amp;nbsp;&lt;span style=&quot;background-color: rgb(103, 171, 159);&quot;&gt;Access Token&lt;/span&gt;&amp;nbsp;" style="html=1;verticalAlign=bottom;endArrow=block;labelBackgroundColor=none;fontFamily=Verdana;fontSize=12;" parent="7baba1c4bc27f4b0-3" edge="1">
          <mxGeometry x="-0.0353" relative="1" as="geometry">
            <mxPoint x="-285.5" y="557" as="sourcePoint" />
            <mxPoint x="49" y="557" as="targetPoint" />
            <mxPoint as="offset" />
          </mxGeometry>
        </mxCell>
        <mxCell id="7baba1c4bc27f4b0-4" value="RS" style="shape=umlLifeline;perimeter=lifelinePerimeter;whiteSpace=wrap;html=1;container=1;collapsible=0;recursiveResize=0;outlineConnect=0;rounded=1;shadow=0;comic=0;labelBackgroundColor=none;strokeWidth=2;fontFamily=Verdana;fontSize=12;align=center;fillColor=#e1d5e7;strokeColor=#9673a6;" parent="1" vertex="1">
          <mxGeometry x="1040" y="80" width="100" height="800" as="geometry" />
        </mxCell>
        <mxCell id="7baba1c4bc27f4b0-8" value="RO" style="shape=umlLifeline;perimeter=lifelinePerimeter;whiteSpace=wrap;html=1;container=0;collapsible=0;recursiveResize=0;outlineConnect=0;rounded=1;shadow=0;comic=0;labelBackgroundColor=none;strokeWidth=2;fontFamily=Verdana;fontSize=12;align=center;fillColor=#cce5ff;strokeColor=#3399FF;" parent="1" vertex="1">
          <mxGeometry x="100" y="80" width="100" height="800" as="geometry" />
        </mxCell>
        <mxCell id="7baba1c4bc27f4b0-23" value="&lt;span style=&quot;background-color: rgb(204, 229, 255);&quot;&gt;RO&lt;/span&gt; enter Credentials and &lt;span style=&quot;background-color: rgb(103, 171, 159);&quot;&gt;Consent&lt;/span&gt;" style="html=1;verticalAlign=bottom;endArrow=block;labelBackgroundColor=none;fontFamily=Verdana;fontSize=12;" parent="1" edge="1">
          <mxGeometry relative="1" as="geometry">
            <mxPoint x="149.94736842105272" y="393" as="sourcePoint" />
            <mxPoint x="764" y="393" as="targetPoint" />
            <mxPoint as="offset" />
          </mxGeometry>
        </mxCell>
        <mxCell id="7baba1c4bc27f4b0-11" value="&lt;span style=&quot;background-color: rgb(204, 229, 255);&quot;&gt;RO&lt;/span&gt; visits &quot;yourapp.com&quot; (&lt;span style=&quot;background-color: rgb(255, 230, 204);&quot;&gt;Client/RP&lt;/span&gt;)&lt;br&gt;and clicks &quot;Sign up with ... Google&quot;" style="html=1;verticalAlign=bottom;endArrow=block;labelBackgroundColor=none;fontFamily=Verdana;fontSize=12;edgeStyle=elbowEdgeStyle;elbow=vertical;" parent="1" edge="1">
          <mxGeometry relative="1" as="geometry">
            <mxPoint x="149.99999999999977" y="229" as="sourcePoint" />
            <mxPoint x="429" y="229.14285714285734" as="targetPoint" />
          </mxGeometry>
        </mxCell>
        <mxCell id="7baba1c4bc27f4b0-14" value="&lt;span style=&quot;background-color: rgb(255, 230, 204);&quot;&gt;Client/RP&lt;/span&gt; redirects &lt;span style=&quot;background-color: rgb(204, 229, 255);&quot;&gt;RO&lt;/span&gt; to &lt;br&gt;&quot;https://accounts.google.com/.../auth?&lt;br&gt;&lt;span style=&quot;background-color: rgb(103, 171, 159);&quot;&gt;client_id&lt;/span&gt;=&lt;span style=&quot;background-color: rgb(255, 153, 153);&quot;&gt;&amp;lt;client_id&amp;gt;&lt;/span&gt;&amp;amp;&lt;br&gt;&lt;span style=&quot;background-color: rgb(103, 171, 159);&quot;&gt;redirect_uri&lt;/span&gt;=&lt;span style=&quot;background-color: rgb(255, 153, 153);&quot;&gt;https://yourapp.com/signin&lt;/span&gt;&amp;amp;&lt;br&gt;&lt;span style=&quot;background-color: rgb(103, 171, 159);&quot;&gt;scope&lt;/span&gt;=&lt;span style=&quot;background-color: rgb(255, 153, 153);&quot;&gt;openid profile email&lt;/span&gt;&amp;amp;&lt;br&gt;&lt;span style=&quot;background-color: rgb(103, 171, 159);&quot;&gt;response_type&lt;/span&gt;=&lt;span style=&quot;background-color: rgb(255, 153, 153);&quot;&gt;code&lt;/span&gt;&amp;amp;&lt;br&gt;&lt;span style=&quot;background-color: rgb(103, 171, 159);&quot;&gt;state&lt;/span&gt;=&lt;span style=&quot;background-color: rgb(255, 153, 153);&quot;&gt;something&amp;amp;&lt;br&gt;&lt;/span&gt;&lt;span style=&quot;background-color: rgb(103, 171, 159);&quot;&gt;nonce&lt;/span&gt;=&lt;span style=&quot;background-color: rgb(255, 153, 153);&quot;&gt;some_secure_hash&amp;amp;&lt;/span&gt;&quot;" style="html=1;verticalAlign=bottom;endArrow=block;labelBackgroundColor=none;fontFamily=Verdana;fontSize=12;edgeStyle=elbowEdgeStyle;elbow=vertical;" parent="1" edge="1">
          <mxGeometry x="0.0652" relative="1" as="geometry">
            <mxPoint x="429.8103448275863" y="284.0344827586207" as="sourcePoint" />
            <mxPoint x="764" y="283.3333333333335" as="targetPoint" />
            <mxPoint as="offset" />
          </mxGeometry>
        </mxCell>
        <mxCell id="IGa3jXh2fTy8C1wKVysX-6" value="" style="shape=umlActor;verticalLabelPosition=bottom;verticalAlign=top;html=1;" parent="1" vertex="1">
          <mxGeometry x="135" y="16" width="30" height="60" as="geometry" />
        </mxCell>
        <mxCell id="IGa3jXh2fTy8C1wKVysX-9" value="&lt;b&gt;Legend:&lt;/b&gt;&lt;br&gt;&lt;br&gt;- RO = Resource Owner&lt;br&gt;- Client/RP = Client (in OAuth-speak) / Relaying Party (in OIDC speak)&amp;nbsp;&lt;br&gt;- AS/OP = Authorization Server (in OAuth-speak) / OpenID Provider (in OIDC speak)&lt;br&gt;- RS = Resource Server&lt;br&gt;- Front-Channel =&amp;nbsp;when a request from the AS/OP to the Client/RP is getting passed via the browser&#39;s address bar of the RO&lt;br&gt;- Back-Channel =&amp;nbsp;when data is exchanged between Client/RP and AS/OP without involving the RO machine or browser." style="rounded=1;whiteSpace=wrap;html=1;align=left;fillColor=#d5e8d4;strokeColor=#82b366;" parent="1" vertex="1">
          <mxGeometry x="370" y="-195" width="537.5" height="180" as="geometry" />
        </mxCell>
        <mxCell id="IGa3jXh2fTy8C1wKVysX-12" value="&lt;div class=&quot;css-1tsb9g0&quot;&gt;&lt;h5 style=&quot;text-align: center;&quot; class=&quot;MuiTypography-root MuiTypography-h5 css-gc3mlr&quot;&gt;&lt;font style=&quot;font-size: 30px;&quot;&gt;Authorization Code Flow in OIDC&lt;/font&gt;&lt;/h5&gt;&lt;/div&gt;&lt;div class=&quot;css-hmvb2u&quot;&gt;&lt;div class=&quot;css-9xhug0&quot;&gt; &lt;/div&gt;&lt;/div&gt;" style="text;whiteSpace=wrap;html=1;fontColor=#000000;" parent="1" vertex="1">
          <mxGeometry x="397.5" y="-291" width="492.5" height="80" as="geometry" />
        </mxCell>
        <mxCell id="IGa3jXh2fTy8C1wKVysX-14" value="Redirect&amp;nbsp;&lt;span style=&quot;background-color: rgb(204, 229, 255);&quot;&gt;RO&lt;/span&gt;&amp;nbsp;to &lt;span style=&quot;background-color: rgb(255, 230, 204);&quot;&gt;Client/RP&lt;/span&gt; &lt;span style=&quot;background-color: rgb(103, 171, 159);&quot;&gt;redirect_uri&lt;/span&gt; with &lt;br&gt;&lt;span style=&quot;background-color: rgb(103, 171, 159);&quot;&gt;Authorization Code&lt;/span&gt;&amp;nbsp;" style="html=1;verticalAlign=bottom;endArrow=block;labelBackgroundColor=none;fontFamily=Verdana;fontSize=12;edgeStyle=elbowEdgeStyle;elbow=vertical;" parent="1" edge="1">
          <mxGeometry x="-0.0706" y="-3" relative="1" as="geometry">
            <mxPoint x="764" y="448" as="sourcePoint" />
            <Array as="points">
              <mxPoint x="655" y="448" />
            </Array>
            <mxPoint x="427.1666666666665" y="448" as="targetPoint" />
            <mxPoint as="offset" />
          </mxGeometry>
        </mxCell>
        <mxCell id="IGa3jXh2fTy8C1wKVysX-15" value="&lt;span style=&quot;background-color: rgb(255, 230, 204);&quot;&gt;Client/RP&lt;/span&gt; request an &lt;span style=&quot;background-color: rgb(103, 171, 159);&quot;&gt;Access Token&lt;/span&gt; and &lt;span style=&quot;background-color: rgb(103, 171, 159);&quot;&gt;ID Token&lt;/span&gt;&lt;br&gt;using &lt;span style=&quot;background-color: rgb(103, 171, 159);&quot;&gt;Authorization Code&lt;/span&gt;, &lt;span style=&quot;background-color: rgb(103, 171, 159);&quot;&gt;Client ID&lt;/span&gt; and &lt;span style=&quot;background-color: rgb(103, 171, 159);&quot;&gt;Client Secret&lt;/span&gt;" style="html=1;verticalAlign=bottom;endArrow=block;labelBackgroundColor=none;fontFamily=Verdana;fontSize=12;" parent="1" edge="1">
          <mxGeometry x="-0.0369" relative="1" as="geometry">
            <mxPoint x="430.0238095238095" y="507" as="sourcePoint" />
            <mxPoint x="764" y="507" as="targetPoint" />
            <mxPoint as="offset" />
          </mxGeometry>
        </mxCell>
        <mxCell id="IGa3jXh2fTy8C1wKVysX-16" value="Ask&amp;nbsp;&lt;span style=&quot;background-color: rgb(204, 229, 255);&quot;&gt;RO&lt;/span&gt;&amp;nbsp;for Login and&amp;nbsp;&lt;span style=&quot;border-color: var(--border-color); background-color: rgb(103, 171, 159);&quot;&gt;Consent&lt;/span&gt;&amp;nbsp;" style="html=1;verticalAlign=bottom;endArrow=none;labelBackgroundColor=none;fontFamily=Verdana;fontSize=12;startArrow=block;startFill=1;endFill=0;" parent="1" edge="1">
          <mxGeometry relative="1" as="geometry">
            <mxPoint x="150" y="346" as="sourcePoint" />
            <mxPoint x="764" y="346" as="targetPoint" />
            <mxPoint as="offset" />
          </mxGeometry>
        </mxCell>
        <mxCell id="IGa3jXh2fTy8C1wKVysX-19" value="Response with&amp;nbsp;&lt;span style=&quot;background-color: rgb(103, 171, 159);&quot;&gt;Access Token&lt;/span&gt;&amp;nbsp;and&amp;nbsp;&lt;span style=&quot;border-color: var(--border-color); background-color: rgb(103, 171, 159);&quot;&gt;ID Token&lt;/span&gt;&amp;nbsp;&lt;br&gt;(and optionally &lt;span style=&quot;background-color: rgb(103, 171, 159);&quot;&gt;Refresh Token&lt;/span&gt;)" style="html=1;verticalAlign=bottom;endArrow=block;labelBackgroundColor=none;fontFamily=Verdana;fontSize=12;edgeStyle=elbowEdgeStyle;elbow=vertical;" parent="1" edge="1">
          <mxGeometry x="-0.0706" y="-3" relative="1" as="geometry">
            <mxPoint x="764" y="587" as="sourcePoint" />
            <Array as="points">
              <mxPoint x="655.33" y="587" />
            </Array>
            <mxPoint x="427.1666666666665" y="587" as="targetPoint" />
            <mxPoint as="offset" />
          </mxGeometry>
        </mxCell>
        <mxCell id="IGa3jXh2fTy8C1wKVysX-21" value="Userinfo response" style="html=1;verticalAlign=bottom;endArrow=block;labelBackgroundColor=none;fontFamily=Verdana;fontSize=12;edgeStyle=elbowEdgeStyle;elbow=vertical;" parent="1" edge="1">
          <mxGeometry x="-0.0706" y="-3" relative="1" as="geometry">
            <mxPoint x="764" y="682" as="sourcePoint" />
            <Array as="points">
              <mxPoint x="770" y="682" />
            </Array>
            <mxPoint x="430" y="682" as="targetPoint" />
            <mxPoint as="offset" />
          </mxGeometry>
        </mxCell>
        <mxCell id="_ICmuHY_S-w1vZ45T4bN-1" value="Request some information with &lt;span style=&quot;background-color: rgb(103, 171, 159);&quot;&gt;Access Token&lt;/span&gt;" style="html=1;verticalAlign=bottom;endArrow=block;labelBackgroundColor=none;fontFamily=Verdana;fontSize=12;" parent="1" edge="1">
          <mxGeometry x="-0.0353" relative="1" as="geometry">
            <mxPoint x="427.1666666666665" y="717" as="sourcePoint" />
            <mxPoint x="1089" y="717" as="targetPoint" />
            <mxPoint as="offset" />
            <Array as="points">
              <mxPoint x="890" y="717" />
            </Array>
          </mxGeometry>
        </mxCell>
        <mxCell id="_ICmuHY_S-w1vZ45T4bN-3" value="Response" style="html=1;verticalAlign=bottom;endArrow=block;labelBackgroundColor=none;fontFamily=Verdana;fontSize=12;edgeStyle=elbowEdgeStyle;elbow=vertical;" parent="1" edge="1">
          <mxGeometry x="-0.0024" relative="1" as="geometry">
            <mxPoint x="1049" y="753" as="sourcePoint" />
            <Array as="points">
              <mxPoint x="915.83" y="753" />
            </Array>
            <mxPoint x="429.5" y="753" as="targetPoint" />
            <mxPoint as="offset" />
          </mxGeometry>
        </mxCell>
        <mxCell id="_ICmuHY_S-w1vZ45T4bN-5" value="&lt;span style=&quot;background-color: rgb(255, 230, 204);&quot;&gt;Client/RP&lt;/span&gt; redirect &lt;span style=&quot;background-color: rgb(204, 229, 255);&quot;&gt;RO&lt;/span&gt;, &lt;br&gt;e.g. to the main application page" style="html=1;verticalAlign=bottom;endArrow=block;labelBackgroundColor=none;fontFamily=Verdana;fontSize=12;edgeStyle=elbowEdgeStyle;elbow=vertical;" parent="1" edge="1">
          <mxGeometry x="-0.0706" y="-3" relative="1" as="geometry">
            <mxPoint x="428.50000000000045" y="825" as="sourcePoint" />
            <Array as="points">
              <mxPoint x="216.01000000000005" y="825" />
            </Array>
            <mxPoint x="149.57142857142844" y="825" as="targetPoint" />
            <mxPoint as="offset" />
          </mxGeometry>
        </mxCell>
        <mxCell id="7baba1c4bc27f4b0-2" value="Client/RP" style="shape=umlLifeline;perimeter=lifelinePerimeter;whiteSpace=wrap;html=1;container=1;collapsible=0;recursiveResize=0;outlineConnect=0;rounded=1;shadow=0;comic=0;labelBackgroundColor=none;strokeWidth=2;fontFamily=Verdana;fontSize=12;align=center;fillColor=#ffe6cc;strokeColor=#d79b00;" parent="1" vertex="1">
          <mxGeometry x="379.5" y="80" width="100" height="800" as="geometry" />
        </mxCell>
        <mxCell id="oH3g6FZtVWpOTfCN15k7-2" value="" style="html=1;verticalAlign=bottom;endArrow=open;dashed=1;endSize=8;labelBackgroundColor=none;fontFamily=Verdana;fontSize=12;elbow=vertical;" parent="7baba1c4bc27f4b0-2" edge="1">
          <mxGeometry relative="1" as="geometry">
            <mxPoint x="50.5" y="509" as="targetPoint" />
            <mxPoint x="-29.5" y="459" as="sourcePoint" />
          </mxGeometry>
        </mxCell>
        <mxCell id="ap6kXIPFRNni-n1Ezb-G-14" value="&lt;b style=&quot;border-color: var(--border-color);&quot;&gt;&lt;font style=&quot;font-size: 16px;&quot;&gt;Security Concepts:&lt;/font&gt;&lt;/b&gt;&lt;br&gt;&lt;br&gt;- &quot;state&quot; parameter is used for CSRF Protection&lt;br&gt;- &quot;nonce&quot; parameter is used for Server-Side Replay Protection&lt;br&gt;- ..." style="rounded=1;whiteSpace=wrap;html=1;align=left;fillColor=#ffe6cc;strokeColor=#d79b00;" parent="1" vertex="1">
          <mxGeometry x="1140" y="157" width="530" height="110" as="geometry" />
        </mxCell>
        <mxCell id="hWFgnr9667ABjFhtj44m-20" value="" style="group" parent="1" vertex="1" connectable="0">
          <mxGeometry x="770" y="227" width="250" height="50" as="geometry" />
        </mxCell>
        <mxCell id="hWFgnr9667ABjFhtj44m-21" value="" style="html=1;verticalAlign=bottom;endArrow=open;dashed=1;endSize=8;labelBackgroundColor=none;fontFamily=Verdana;fontSize=12;elbow=vertical;" parent="hWFgnr9667ABjFhtj44m-20" edge="1">
          <mxGeometry relative="1" as="geometry">
            <mxPoint y="50" as="targetPoint" />
            <mxPoint x="130" as="sourcePoint" />
          </mxGeometry>
        </mxCell>
        <mxCell id="hWFgnr9667ABjFhtj44m-22" value="" style="html=1;verticalAlign=bottom;endArrow=none;dashed=1;endSize=8;labelBackgroundColor=none;fontFamily=Verdana;fontSize=12;elbow=vertical;endFill=0;" parent="hWFgnr9667ABjFhtj44m-20" edge="1">
          <mxGeometry relative="1" as="geometry">
            <mxPoint x="130" as="targetPoint" />
            <mxPoint x="250" as="sourcePoint" />
          </mxGeometry>
        </mxCell>
        <mxCell id="hWFgnr9667ABjFhtj44m-23" value="&lt;span style=&quot;background-color: rgb(103, 171, 159); font-size: 12px;&quot;&gt;/auth&lt;/span&gt;&amp;nbsp;endpoint" style="edgeLabel;html=1;align=center;verticalAlign=bottom;resizable=0;points=[];labelPosition=center;verticalLabelPosition=top;fontSize=12;" parent="hWFgnr9667ABjFhtj44m-22" vertex="1" connectable="0">
          <mxGeometry x="0.0994" relative="1" as="geometry">
            <mxPoint as="offset" />
          </mxGeometry>
        </mxCell>
        <mxCell id="hWFgnr9667ABjFhtj44m-24" value="" style="group" parent="1" vertex="1" connectable="0">
          <mxGeometry x="820" y="30" width="250" height="50" as="geometry" />
        </mxCell>
        <mxCell id="hWFgnr9667ABjFhtj44m-25" value="" style="html=1;verticalAlign=bottom;endArrow=open;dashed=1;endSize=8;labelBackgroundColor=none;fontFamily=Verdana;fontSize=12;elbow=vertical;" parent="hWFgnr9667ABjFhtj44m-24" edge="1">
          <mxGeometry relative="1" as="geometry">
            <mxPoint y="50" as="targetPoint" />
            <mxPoint x="130" as="sourcePoint" />
          </mxGeometry>
        </mxCell>
        <mxCell id="hWFgnr9667ABjFhtj44m-26" value="" style="html=1;verticalAlign=bottom;endArrow=none;dashed=1;endSize=8;labelBackgroundColor=none;fontFamily=Verdana;fontSize=12;elbow=vertical;endFill=0;" parent="hWFgnr9667ABjFhtj44m-24" edge="1">
          <mxGeometry relative="1" as="geometry">
            <mxPoint x="130" as="targetPoint" />
            <mxPoint x="250" as="sourcePoint" />
          </mxGeometry>
        </mxCell>
        <mxCell id="hWFgnr9667ABjFhtj44m-27" value="GET https://op.example.com/.well-known/oauth-authorization-server&lt;br&gt;GET https://op.example.com/.well-known/openid-configuration" style="edgeLabel;html=1;align=center;verticalAlign=bottom;resizable=0;points=[];labelPosition=center;verticalLabelPosition=top;fontSize=12;" parent="hWFgnr9667ABjFhtj44m-26" vertex="1" connectable="0">
          <mxGeometry x="0.0994" relative="1" as="geometry">
            <mxPoint as="offset" />
          </mxGeometry>
        </mxCell>
        <mxCell id="oH3g6FZtVWpOTfCN15k7-3" value="" style="html=1;verticalAlign=bottom;endArrow=none;dashed=1;endSize=8;labelBackgroundColor=none;fontFamily=Verdana;fontSize=12;elbow=vertical;endFill=0;" parent="1" edge="1">
          <mxGeometry relative="1" as="geometry">
            <mxPoint x="229" y="538" as="targetPoint" />
            <mxPoint x="349" y="538" as="sourcePoint" />
          </mxGeometry>
        </mxCell>
        <mxCell id="oH3g6FZtVWpOTfCN15k7-4" value="Client checks if &lt;span style=&quot;background-color: rgb(103, 171, 159);&quot;&gt;nonce claim&lt;/span&gt; (inside &lt;span style=&quot;background-color: rgb(103, 171, 159);&quot;&gt;ID Token&lt;/span&gt;)&amp;nbsp;&lt;br&gt;is not the same value as in request&lt;br&gt;&amp;nbsp;to &lt;span style=&quot;background-color: rgb(103, 171, 159);&quot;&gt;/auth&lt;/span&gt; endpoint&lt;br&gt;&amp;nbsp;=&amp;gt; Client drops the flow" style="edgeLabel;html=1;align=center;verticalAlign=bottom;resizable=0;points=[];labelPosition=center;verticalLabelPosition=top;fontSize=12;" parent="oH3g6FZtVWpOTfCN15k7-3" vertex="1" connectable="0">
          <mxGeometry x="0.0994" relative="1" as="geometry">
            <mxPoint x="-22" as="offset" />
          </mxGeometry>
        </mxCell>
        <mxCell id="tk72EeTZH0YWwKxZulQ8-59" value="&lt;span style=&quot;background-color: rgb(255, 242, 204);&quot;&gt;AS/OP&lt;/span&gt;&amp;nbsp;validates &lt;span style=&quot;background-color: rgb(103, 171, 159);&quot;&gt;Authorization Code&lt;/span&gt;, &lt;br&gt;&lt;span style=&quot;background-color: rgb(103, 171, 159);&quot;&gt;Client ID&lt;/span&gt;, &lt;span style=&quot;background-color: rgb(103, 171, 159);&quot;&gt;Client Secret&lt;/span&gt;" style="html=1;verticalAlign=bottom;endArrow=block;labelBackgroundColor=none;fontFamily=Verdana;fontSize=12;elbow=vertical;edgeStyle=orthogonalEdgeStyle;curved=1;" parent="1" source="7baba1c4bc27f4b0-3" target="7baba1c4bc27f4b0-3" edge="1">
          <mxGeometry x="0.1232" y="109" relative="1" as="geometry">
            <mxPoint x="770" y="520" as="sourcePoint" />
            <mxPoint x="770" y="559" as="targetPoint" />
            <Array as="points">
              <mxPoint x="831" y="520" />
              <mxPoint x="831" y="559" />
            </Array>
            <mxPoint as="offset" />
          </mxGeometry>
        </mxCell>
      </root>
    </mxGraphModel>
  </diagram>
  <diagram id="d605GZ7WtlB3KXcf-jQN" name="Authorization Code Flow with PKCE">
    <mxGraphModel dx="413" dy="2302" grid="1" gridSize="10" guides="1" tooltips="1" connect="1" arrows="1" fold="1" page="1" pageScale="1" pageWidth="827" pageHeight="1169" math="0" shadow="0">
      <root>
        <mxCell id="0" />
        <mxCell id="1" parent="0" />
        <mxCell id="uevHiyvahyzexUpD0O_Z-1" value="" style="group" parent="1" vertex="1" connectable="0">
          <mxGeometry x="2585.41" y="494" width="677" height="296" as="geometry" />
        </mxCell>
        <mxCell id="uevHiyvahyzexUpD0O_Z-2" value="" style="rounded=1;whiteSpace=wrap;html=1;strokeWidth=2;fontSize=30;fontColor=#000000;" parent="uevHiyvahyzexUpD0O_Z-1" vertex="1">
          <mxGeometry x="4.5" width="672.5" height="296" as="geometry" />
        </mxCell>
        <mxCell id="uevHiyvahyzexUpD0O_Z-3" value="&lt;span style=&quot;color: rgb(0, 0, 0); font-family: Helvetica; font-style: normal; font-variant-ligatures: normal; font-variant-caps: normal; font-weight: 400; letter-spacing: normal; orphans: 2; text-align: center; text-indent: 0px; text-transform: none; widows: 2; word-spacing: 0px; -webkit-text-stroke-width: 0px; background-color: rgb(251, 251, 251); text-decoration-thickness: initial; text-decoration-style: initial; text-decoration-color: initial; float: none; display: inline !important;&quot;&gt;&lt;font style=&quot;font-size: 22px;&quot;&gt;Back-Channel&lt;/font&gt;&lt;/span&gt;" style="text;whiteSpace=wrap;html=1;rotation=-90;" parent="uevHiyvahyzexUpD0O_Z-1" vertex="1">
          <mxGeometry x="-50" y="106" width="160" height="60" as="geometry" />
        </mxCell>
        <mxCell id="uevHiyvahyzexUpD0O_Z-4" value="" style="group" parent="uevHiyvahyzexUpD0O_Z-1" vertex="1" connectable="0">
          <mxGeometry x="383" y="116" width="250" height="50" as="geometry" />
        </mxCell>
        <mxCell id="uevHiyvahyzexUpD0O_Z-5" value="" style="html=1;verticalAlign=bottom;endArrow=open;dashed=1;endSize=8;labelBackgroundColor=none;fontFamily=Verdana;fontSize=12;elbow=vertical;" parent="uevHiyvahyzexUpD0O_Z-4" edge="1">
          <mxGeometry relative="1" as="geometry">
            <mxPoint y="50" as="targetPoint" />
            <mxPoint x="130" as="sourcePoint" />
          </mxGeometry>
        </mxCell>
        <mxCell id="uevHiyvahyzexUpD0O_Z-6" value="" style="html=1;verticalAlign=bottom;endArrow=none;dashed=1;endSize=8;labelBackgroundColor=none;fontFamily=Verdana;fontSize=12;elbow=vertical;endFill=0;" parent="uevHiyvahyzexUpD0O_Z-4" edge="1">
          <mxGeometry relative="1" as="geometry">
            <mxPoint x="130" as="targetPoint" />
            <mxPoint x="250" as="sourcePoint" />
          </mxGeometry>
        </mxCell>
        <mxCell id="uevHiyvahyzexUpD0O_Z-7" value="&lt;span style=&quot;background-color: rgb(103, 171, 159); font-size: 12px;&quot;&gt;/userinfo&lt;/span&gt; endpoint" style="edgeLabel;html=1;align=center;verticalAlign=bottom;resizable=0;points=[];labelPosition=center;verticalLabelPosition=top;fontSize=12;" parent="uevHiyvahyzexUpD0O_Z-6" vertex="1" connectable="0">
          <mxGeometry x="0.0994" relative="1" as="geometry">
            <mxPoint as="offset" />
          </mxGeometry>
        </mxCell>
        <mxCell id="uevHiyvahyzexUpD0O_Z-8" value="" style="group" parent="uevHiyvahyzexUpD0O_Z-1" vertex="1" connectable="0">
          <mxGeometry x="383" y="-21" width="250" height="50" as="geometry" />
        </mxCell>
        <mxCell id="uevHiyvahyzexUpD0O_Z-9" value="" style="html=1;verticalAlign=bottom;endArrow=open;dashed=1;endSize=8;labelBackgroundColor=none;fontFamily=Verdana;fontSize=12;elbow=vertical;" parent="uevHiyvahyzexUpD0O_Z-8" edge="1">
          <mxGeometry relative="1" as="geometry">
            <mxPoint y="50" as="targetPoint" />
            <mxPoint x="130" as="sourcePoint" />
          </mxGeometry>
        </mxCell>
        <mxCell id="uevHiyvahyzexUpD0O_Z-10" value="" style="html=1;verticalAlign=bottom;endArrow=none;dashed=1;endSize=8;labelBackgroundColor=none;fontFamily=Verdana;fontSize=12;elbow=vertical;endFill=0;" parent="uevHiyvahyzexUpD0O_Z-8" edge="1">
          <mxGeometry relative="1" as="geometry">
            <mxPoint x="130" as="targetPoint" />
            <mxPoint x="250" as="sourcePoint" />
          </mxGeometry>
        </mxCell>
        <mxCell id="uevHiyvahyzexUpD0O_Z-11" value="&lt;span style=&quot;background-color: rgb(103, 171, 159); font-size: 12px;&quot;&gt;/token&lt;/span&gt; endpoint" style="edgeLabel;html=1;align=center;verticalAlign=bottom;resizable=0;points=[];labelPosition=center;verticalLabelPosition=top;fontSize=12;" parent="uevHiyvahyzexUpD0O_Z-10" vertex="1" connectable="0">
          <mxGeometry x="0.0994" relative="1" as="geometry">
            <mxPoint as="offset" />
          </mxGeometry>
        </mxCell>
        <mxCell id="uevHiyvahyzexUpD0O_Z-12" value="" style="group" parent="1" vertex="1" connectable="0">
          <mxGeometry x="2318.41" y="798" width="330" height="170" as="geometry" />
        </mxCell>
        <mxCell id="uevHiyvahyzexUpD0O_Z-13" value="" style="rounded=1;whiteSpace=wrap;html=1;strokeWidth=2;fontSize=30;fontColor=#000000;labelPosition=center;verticalLabelPosition=top;align=center;verticalAlign=bottom;" parent="uevHiyvahyzexUpD0O_Z-12" vertex="1">
          <mxGeometry x="-10" width="340" height="170" as="geometry" />
        </mxCell>
        <mxCell id="uevHiyvahyzexUpD0O_Z-14" value="&lt;span style=&quot;color: rgb(0, 0, 0); font-family: Helvetica; font-style: normal; font-variant-ligatures: normal; font-variant-caps: normal; font-weight: 400; letter-spacing: normal; orphans: 2; text-align: center; text-indent: 0px; text-transform: none; widows: 2; word-spacing: 0px; -webkit-text-stroke-width: 0px; background-color: rgb(251, 251, 251); text-decoration-thickness: initial; text-decoration-style: initial; text-decoration-color: initial; float: none; display: inline !important;&quot;&gt;&lt;font style=&quot;font-size: 22px;&quot;&gt;Front-Channel&lt;/font&gt;&lt;/span&gt;" style="text;whiteSpace=wrap;html=1;rotation=-90;" parent="uevHiyvahyzexUpD0O_Z-12" vertex="1">
          <mxGeometry x="-66.64" y="67.93" width="150.51" height="29.03" as="geometry" />
        </mxCell>
        <mxCell id="uevHiyvahyzexUpD0O_Z-15" value="" style="group" parent="1" vertex="1" connectable="0">
          <mxGeometry x="2298.41" y="151" width="760" height="333" as="geometry" />
        </mxCell>
        <mxCell id="uevHiyvahyzexUpD0O_Z-16" value="" style="rounded=1;whiteSpace=wrap;html=1;strokeWidth=2;fontSize=30;fontColor=#000000;labelPosition=center;verticalLabelPosition=top;align=center;verticalAlign=bottom;" parent="uevHiyvahyzexUpD0O_Z-15" vertex="1">
          <mxGeometry x="4.840764331210191" width="755.1592356687898" height="333" as="geometry" />
        </mxCell>
        <mxCell id="uevHiyvahyzexUpD0O_Z-17" value="&lt;span style=&quot;color: rgb(0, 0, 0); font-family: Helvetica; font-style: normal; font-variant-ligatures: normal; font-variant-caps: normal; font-weight: 400; letter-spacing: normal; orphans: 2; text-align: center; text-indent: 0px; text-transform: none; widows: 2; word-spacing: 0px; -webkit-text-stroke-width: 0px; background-color: rgb(251, 251, 251); text-decoration-thickness: initial; text-decoration-style: initial; text-decoration-color: initial; float: none; display: inline !important;&quot;&gt;&lt;font style=&quot;font-size: 22px;&quot;&gt;Front-Channel&lt;/font&gt;&lt;/span&gt;" style="text;whiteSpace=wrap;html=1;rotation=-90;" parent="uevHiyvahyzexUpD0O_Z-15" vertex="1">
          <mxGeometry x="-48.40764331210191" y="127.82903225806452" width="154.9044585987261" height="64.45161290322581" as="geometry" />
        </mxCell>
        <mxCell id="uevHiyvahyzexUpD0O_Z-18" value="AS/OP" style="shape=umlLifeline;perimeter=lifelinePerimeter;whiteSpace=wrap;html=1;container=1;collapsible=0;recursiveResize=0;outlineConnect=0;rounded=1;shadow=0;comic=0;labelBackgroundColor=none;strokeWidth=2;fontFamily=Verdana;fontSize=12;align=center;fillColor=#fff2cc;strokeColor=#d6b656;" parent="1" vertex="1">
          <mxGeometry x="2913.41" y="101" width="100" height="800" as="geometry" />
        </mxCell>
        <mxCell id="uevHiyvahyzexUpD0O_Z-19" value="Request userinfo using&amp;nbsp;&lt;span style=&quot;background-color: rgb(103, 171, 159);&quot;&gt;Access Token&lt;/span&gt;&amp;nbsp;" style="html=1;verticalAlign=bottom;endArrow=block;labelBackgroundColor=none;fontFamily=Verdana;fontSize=12;" parent="uevHiyvahyzexUpD0O_Z-18" edge="1">
          <mxGeometry x="-0.0353" relative="1" as="geometry">
            <mxPoint x="-285.5" y="557" as="sourcePoint" />
            <mxPoint x="49" y="557" as="targetPoint" />
            <mxPoint as="offset" />
          </mxGeometry>
        </mxCell>
        <mxCell id="uevHiyvahyzexUpD0O_Z-20" value="RS" style="shape=umlLifeline;perimeter=lifelinePerimeter;whiteSpace=wrap;html=1;container=1;collapsible=0;recursiveResize=0;outlineConnect=0;rounded=1;shadow=0;comic=0;labelBackgroundColor=none;strokeWidth=2;fontFamily=Verdana;fontSize=12;align=center;fillColor=#e1d5e7;strokeColor=#9673a6;" parent="1" vertex="1">
          <mxGeometry x="3238.41" y="101" width="100" height="800" as="geometry" />
        </mxCell>
        <mxCell id="uevHiyvahyzexUpD0O_Z-21" value="RO" style="shape=umlLifeline;perimeter=lifelinePerimeter;whiteSpace=wrap;html=1;container=0;collapsible=0;recursiveResize=0;outlineConnect=0;rounded=1;shadow=0;comic=0;labelBackgroundColor=none;strokeWidth=2;fontFamily=Verdana;fontSize=12;align=center;fillColor=#cce5ff;strokeColor=#3399FF;" parent="1" vertex="1">
          <mxGeometry x="2298.41" y="101" width="100" height="800" as="geometry" />
        </mxCell>
        <mxCell id="uevHiyvahyzexUpD0O_Z-22" value="&lt;span style=&quot;background-color: rgb(204, 229, 255);&quot;&gt;RO&lt;/span&gt; enter Credentials and &lt;span style=&quot;background-color: rgb(103, 171, 159);&quot;&gt;Consent&lt;/span&gt;" style="html=1;verticalAlign=bottom;endArrow=block;labelBackgroundColor=none;fontFamily=Verdana;fontSize=12;" parent="1" edge="1">
          <mxGeometry relative="1" as="geometry">
            <mxPoint x="2348.3573684210523" y="414" as="sourcePoint" />
            <mxPoint x="2962.41" y="414" as="targetPoint" />
            <mxPoint as="offset" />
          </mxGeometry>
        </mxCell>
        <mxCell id="uevHiyvahyzexUpD0O_Z-23" value="&lt;span style=&quot;background-color: rgb(204, 229, 255);&quot;&gt;RO&lt;/span&gt; visits &quot;yourapp.com&quot; (&lt;span style=&quot;background-color: rgb(255, 230, 204);&quot;&gt;Client/RP&lt;/span&gt;)&lt;br&gt;and clicks &quot;Sign up with ... Google&quot;" style="html=1;verticalAlign=bottom;endArrow=block;labelBackgroundColor=none;fontFamily=Verdana;fontSize=12;edgeStyle=elbowEdgeStyle;elbow=vertical;" parent="1" edge="1">
          <mxGeometry relative="1" as="geometry">
            <mxPoint x="2348.41" y="191" as="sourcePoint" />
            <mxPoint x="2627.41" y="191.14285714285734" as="targetPoint" />
          </mxGeometry>
        </mxCell>
        <mxCell id="uevHiyvahyzexUpD0O_Z-24" value="&lt;span style=&quot;background-color: rgb(255, 230, 204);&quot;&gt;Client/RP&lt;/span&gt; redirects &lt;span style=&quot;background-color: rgb(204, 229, 255);&quot;&gt;RO&lt;/span&gt; to &lt;br&gt;&quot;https://accounts.google.com/.../auth?&lt;br&gt;&lt;span style=&quot;background-color: rgb(103, 171, 159);&quot;&gt;client_id&lt;/span&gt;=&lt;span style=&quot;background-color: rgb(255, 153, 153);&quot;&gt;&amp;lt;client_id&amp;gt;&lt;/span&gt;&amp;amp;&lt;br&gt;&lt;span style=&quot;background-color: rgb(103, 171, 159);&quot;&gt;redirect_uri&lt;/span&gt;=&lt;span style=&quot;background-color: rgb(255, 153, 153);&quot;&gt;https://yourapp.com/signin&lt;/span&gt;&amp;amp;&lt;br&gt;&lt;span style=&quot;background-color: rgb(103, 171, 159);&quot;&gt;scope&lt;/span&gt;=&lt;span style=&quot;background-color: rgb(255, 153, 153);&quot;&gt;openid profile email&lt;/span&gt;&amp;amp;&lt;br&gt;&lt;span style=&quot;background-color: rgb(103, 171, 159);&quot;&gt;response_type&lt;/span&gt;=&lt;span style=&quot;background-color: rgb(255, 153, 153);&quot;&gt;code&lt;/span&gt;&amp;amp;&lt;br&gt;&lt;span style=&quot;background-color: rgb(103, 171, 159);&quot;&gt;state&lt;/span&gt;=&lt;span style=&quot;background-color: rgb(255, 153, 153);&quot;&gt;something&amp;amp;&lt;br&gt;&lt;/span&gt;&lt;span style=&quot;background-color: rgb(103, 171, 159);&quot;&gt;nonce&lt;/span&gt;=&lt;span style=&quot;background-color: rgb(255, 153, 153);&quot;&gt;some_secure_hash&amp;amp;&lt;br&gt;&lt;/span&gt;&lt;span style=&quot;background-color: rgb(103, 171, 159);&quot;&gt;code_challenge&lt;/span&gt;=&lt;span style=&quot;background-color: rgb(255, 153, 153);&quot;&gt;hashhashhash&lt;/span&gt;&amp;amp;&lt;br&gt;&lt;span style=&quot;background-color: rgb(103, 171, 159);&quot;&gt;code_challenge_method&lt;/span&gt;=&lt;span style=&quot;background-color: rgb(255, 153, 153);&quot;&gt;S256&lt;/span&gt;&quot;" style="html=1;verticalAlign=bottom;endArrow=block;labelBackgroundColor=none;fontFamily=Verdana;fontSize=12;edgeStyle=elbowEdgeStyle;elbow=vertical;" parent="1" edge="1">
          <mxGeometry x="0.0652" relative="1" as="geometry">
            <mxPoint x="2628.220344827586" y="305.0344827586209" as="sourcePoint" />
            <mxPoint x="2962.41" y="304.33333333333303" as="targetPoint" />
            <mxPoint as="offset" />
          </mxGeometry>
        </mxCell>
        <mxCell id="uevHiyvahyzexUpD0O_Z-25" value="" style="shape=umlActor;verticalLabelPosition=bottom;verticalAlign=top;html=1;" parent="1" vertex="1">
          <mxGeometry x="2333.41" y="37" width="30" height="60" as="geometry" />
        </mxCell>
        <mxCell id="uevHiyvahyzexUpD0O_Z-26" value="&lt;b&gt;Legend:&lt;/b&gt;&lt;br&gt;&lt;br&gt;- RO = Resource Owner&lt;br&gt;- Client/RP = Client (in OAuth-speak) / Relaying Party (in OIDC speak)&amp;nbsp;&lt;br&gt;- AS/OP = Authorization Server (in OAuth-speak) / OpenID Provider (in OIDC speak)&lt;br&gt;- RS = Resource Server&lt;br&gt;- Front-Channel =&amp;nbsp;when a request from the AS/OP to the Client/RP is getting passed via the browser&#39;s address bar of the RO&lt;br&gt;- Back-Channel =&amp;nbsp;when data is exchanged between Client/RP and AS/OP without involving the RO machine or browser." style="rounded=1;whiteSpace=wrap;html=1;align=left;fillColor=#d5e8d4;strokeColor=#82b366;" parent="1" vertex="1">
          <mxGeometry x="2568.41" y="-174" width="537.5" height="180" as="geometry" />
        </mxCell>
        <mxCell id="uevHiyvahyzexUpD0O_Z-27" value="&lt;div class=&quot;css-1tsb9g0&quot;&gt;&lt;h5 style=&quot;text-align: center;&quot; class=&quot;MuiTypography-root MuiTypography-h5 css-gc3mlr&quot;&gt;&lt;font style=&quot;font-size: 30px;&quot;&gt;Authorization Code Flow with PKCE in OIDC&lt;/font&gt;&lt;/h5&gt;&lt;/div&gt;&lt;div class=&quot;css-hmvb2u&quot;&gt;&lt;div class=&quot;css-9xhug0&quot;&gt; &lt;/div&gt;&lt;/div&gt;" style="text;whiteSpace=wrap;html=1;fontColor=#000000;" parent="1" vertex="1">
          <mxGeometry x="2595.91" y="-270" width="492.5" height="80" as="geometry" />
        </mxCell>
        <mxCell id="uevHiyvahyzexUpD0O_Z-28" value="Redirect&amp;nbsp;&lt;span style=&quot;background-color: rgb(204, 229, 255);&quot;&gt;RO&lt;/span&gt;&amp;nbsp;to &lt;span style=&quot;background-color: rgb(255, 230, 204);&quot;&gt;Client/RP&lt;/span&gt; &lt;span style=&quot;background-color: rgb(103, 171, 159);&quot;&gt;redirect_uri&lt;/span&gt; with &lt;br&gt;&lt;span style=&quot;background-color: rgb(103, 171, 159);&quot;&gt;Authorization Code&lt;/span&gt;&amp;nbsp;" style="html=1;verticalAlign=bottom;endArrow=block;labelBackgroundColor=none;fontFamily=Verdana;fontSize=12;edgeStyle=elbowEdgeStyle;elbow=vertical;" parent="1" edge="1">
          <mxGeometry x="-0.0706" y="-3" relative="1" as="geometry">
            <mxPoint x="2962.41" y="469" as="sourcePoint" />
            <Array as="points">
              <mxPoint x="2853.41" y="469" />
            </Array>
            <mxPoint x="2625.5766666666664" y="469" as="targetPoint" />
            <mxPoint as="offset" />
          </mxGeometry>
        </mxCell>
        <mxCell id="uevHiyvahyzexUpD0O_Z-29" value="&lt;span style=&quot;background-color: rgb(255, 230, 204);&quot;&gt;Client/RP&lt;/span&gt; request an &lt;span style=&quot;background-color: rgb(103, 171, 159);&quot;&gt;Access Token&lt;/span&gt; and &lt;span style=&quot;background-color: rgb(103, 171, 159);&quot;&gt;ID Token&lt;/span&gt;&lt;br&gt;using &lt;span style=&quot;background-color: rgb(103, 171, 159);&quot;&gt;Authorization Code&lt;/span&gt;, &lt;span style=&quot;background-color: rgb(103, 171, 159);&quot;&gt;Client ID&lt;/span&gt; and &lt;span style=&quot;background-color: rgb(103, 171, 159);&quot;&gt;code_verifier&lt;/span&gt;" style="html=1;verticalAlign=bottom;endArrow=block;labelBackgroundColor=none;fontFamily=Verdana;fontSize=12;" parent="1" edge="1">
          <mxGeometry x="-0.0369" relative="1" as="geometry">
            <mxPoint x="2628.433809523809" y="528" as="sourcePoint" />
            <mxPoint x="2962.41" y="528" as="targetPoint" />
            <mxPoint as="offset" />
          </mxGeometry>
        </mxCell>
        <mxCell id="uevHiyvahyzexUpD0O_Z-30" value="Ask&amp;nbsp;&lt;span style=&quot;background-color: rgb(204, 229, 255);&quot;&gt;RO&lt;/span&gt;&amp;nbsp;for Login and&amp;nbsp;&lt;span style=&quot;border-color: var(--border-color); background-color: rgb(103, 171, 159);&quot;&gt;Consent&lt;/span&gt;&amp;nbsp;" style="html=1;verticalAlign=bottom;endArrow=none;labelBackgroundColor=none;fontFamily=Verdana;fontSize=12;startArrow=block;startFill=1;endFill=0;" parent="1" edge="1">
          <mxGeometry relative="1" as="geometry">
            <mxPoint x="2348.41" y="367" as="sourcePoint" />
            <mxPoint x="2962.41" y="367" as="targetPoint" />
            <mxPoint as="offset" />
          </mxGeometry>
        </mxCell>
        <mxCell id="uevHiyvahyzexUpD0O_Z-31" value="Response with&amp;nbsp;&lt;span style=&quot;background-color: rgb(103, 171, 159);&quot;&gt;Access Token&lt;/span&gt;&amp;nbsp;and&amp;nbsp;&lt;span style=&quot;border-color: var(--border-color); background-color: rgb(103, 171, 159);&quot;&gt;ID Token&lt;/span&gt;&amp;nbsp;&lt;br&gt;(and optionally &lt;span style=&quot;background-color: rgb(103, 171, 159);&quot;&gt;Refresh Token&lt;/span&gt;)" style="html=1;verticalAlign=bottom;endArrow=block;labelBackgroundColor=none;fontFamily=Verdana;fontSize=12;edgeStyle=elbowEdgeStyle;elbow=vertical;" parent="1" edge="1">
          <mxGeometry x="-0.0706" y="-3" relative="1" as="geometry">
            <mxPoint x="2962.41" y="608" as="sourcePoint" />
            <Array as="points">
              <mxPoint x="2853.74" y="608" />
            </Array>
            <mxPoint x="2625.5766666666664" y="608" as="targetPoint" />
            <mxPoint as="offset" />
          </mxGeometry>
        </mxCell>
        <mxCell id="uevHiyvahyzexUpD0O_Z-32" value="Userinfo response" style="html=1;verticalAlign=bottom;endArrow=block;labelBackgroundColor=none;fontFamily=Verdana;fontSize=12;edgeStyle=elbowEdgeStyle;elbow=vertical;" parent="1" edge="1">
          <mxGeometry x="-0.0706" y="-3" relative="1" as="geometry">
            <mxPoint x="2962.41" y="703" as="sourcePoint" />
            <Array as="points">
              <mxPoint x="2968.41" y="703" />
            </Array>
            <mxPoint x="2628.41" y="703" as="targetPoint" />
            <mxPoint as="offset" />
          </mxGeometry>
        </mxCell>
        <mxCell id="uevHiyvahyzexUpD0O_Z-33" value="Request some information with &lt;span style=&quot;background-color: rgb(103, 171, 159);&quot;&gt;Access Token&lt;/span&gt;" style="html=1;verticalAlign=bottom;endArrow=block;labelBackgroundColor=none;fontFamily=Verdana;fontSize=12;" parent="1" edge="1">
          <mxGeometry x="-0.0353" relative="1" as="geometry">
            <mxPoint x="2625.5766666666664" y="738" as="sourcePoint" />
            <mxPoint x="3287.41" y="738" as="targetPoint" />
            <mxPoint as="offset" />
            <Array as="points">
              <mxPoint x="3088.41" y="738" />
            </Array>
          </mxGeometry>
        </mxCell>
        <mxCell id="uevHiyvahyzexUpD0O_Z-34" value="Response" style="html=1;verticalAlign=bottom;endArrow=block;labelBackgroundColor=none;fontFamily=Verdana;fontSize=12;edgeStyle=elbowEdgeStyle;elbow=vertical;" parent="1" edge="1">
          <mxGeometry x="-0.0024" relative="1" as="geometry">
            <mxPoint x="3247.41" y="774" as="sourcePoint" />
            <Array as="points">
              <mxPoint x="3114.24" y="774" />
            </Array>
            <mxPoint x="2627.9099999999994" y="774" as="targetPoint" />
            <mxPoint as="offset" />
          </mxGeometry>
        </mxCell>
        <mxCell id="uevHiyvahyzexUpD0O_Z-35" value="&lt;span style=&quot;background-color: rgb(255, 230, 204);&quot;&gt;Client/RP&lt;/span&gt; redirect &lt;span style=&quot;background-color: rgb(204, 229, 255);&quot;&gt;RO&lt;/span&gt;, &lt;br&gt;e.g. to the main application page" style="html=1;verticalAlign=bottom;endArrow=block;labelBackgroundColor=none;fontFamily=Verdana;fontSize=12;edgeStyle=elbowEdgeStyle;elbow=vertical;" parent="1" edge="1">
          <mxGeometry x="-0.0706" y="-3" relative="1" as="geometry">
            <mxPoint x="2626.9100000000003" y="845.9999999999995" as="sourcePoint" />
            <Array as="points">
              <mxPoint x="2414.42" y="846" />
            </Array>
            <mxPoint x="2347.9814285714283" y="845.9999999999995" as="targetPoint" />
            <mxPoint as="offset" />
          </mxGeometry>
        </mxCell>
        <mxCell id="uevHiyvahyzexUpD0O_Z-36" value="Client/RP" style="shape=umlLifeline;perimeter=lifelinePerimeter;whiteSpace=wrap;html=1;container=1;collapsible=0;recursiveResize=0;outlineConnect=0;rounded=1;shadow=0;comic=0;labelBackgroundColor=none;strokeWidth=2;fontFamily=Verdana;fontSize=12;align=center;fillColor=#ffe6cc;strokeColor=#d79b00;" parent="1" vertex="1">
          <mxGeometry x="2577.91" y="101" width="100" height="800" as="geometry" />
        </mxCell>
        <mxCell id="uevHiyvahyzexUpD0O_Z-37" value="" style="html=1;verticalAlign=bottom;endArrow=open;dashed=1;endSize=8;labelBackgroundColor=none;fontFamily=Verdana;fontSize=12;elbow=vertical;" parent="uevHiyvahyzexUpD0O_Z-36" edge="1">
          <mxGeometry relative="1" as="geometry">
            <mxPoint x="50.5" y="509" as="targetPoint" />
            <mxPoint x="-29.5" y="459" as="sourcePoint" />
          </mxGeometry>
        </mxCell>
        <mxCell id="uevHiyvahyzexUpD0O_Z-38" value="&lt;b style=&quot;border-color: var(--border-color);&quot;&gt;&lt;font style=&quot;font-size: 16px;&quot;&gt;Security Concepts:&lt;/font&gt;&lt;/b&gt;&lt;br&gt;&lt;br&gt;- &quot;state&quot; parameter is used for CSRF Protection&lt;br&gt;- &quot;nonce&quot; parameter is used for Server-Side Replay Protection&lt;br&gt;- ..." style="rounded=1;whiteSpace=wrap;html=1;align=left;fillColor=#ffe6cc;strokeColor=#d79b00;" parent="1" vertex="1">
          <mxGeometry x="3338.41" y="178" width="530" height="110" as="geometry" />
        </mxCell>
        <mxCell id="uevHiyvahyzexUpD0O_Z-39" value="" style="group" parent="1" vertex="1" connectable="0">
          <mxGeometry x="2968.41" y="248" width="250" height="50" as="geometry" />
        </mxCell>
        <mxCell id="uevHiyvahyzexUpD0O_Z-40" value="" style="html=1;verticalAlign=bottom;endArrow=open;dashed=1;endSize=8;labelBackgroundColor=none;fontFamily=Verdana;fontSize=12;elbow=vertical;" parent="uevHiyvahyzexUpD0O_Z-39" edge="1">
          <mxGeometry relative="1" as="geometry">
            <mxPoint y="50" as="targetPoint" />
            <mxPoint x="130" as="sourcePoint" />
          </mxGeometry>
        </mxCell>
        <mxCell id="uevHiyvahyzexUpD0O_Z-41" value="" style="html=1;verticalAlign=bottom;endArrow=none;dashed=1;endSize=8;labelBackgroundColor=none;fontFamily=Verdana;fontSize=12;elbow=vertical;endFill=0;" parent="uevHiyvahyzexUpD0O_Z-39" edge="1">
          <mxGeometry relative="1" as="geometry">
            <mxPoint x="130" as="targetPoint" />
            <mxPoint x="250" as="sourcePoint" />
          </mxGeometry>
        </mxCell>
        <mxCell id="uevHiyvahyzexUpD0O_Z-42" value="&lt;span style=&quot;background-color: rgb(103, 171, 159); font-size: 12px;&quot;&gt;/auth&lt;/span&gt;&amp;nbsp;endpoint" style="edgeLabel;html=1;align=center;verticalAlign=bottom;resizable=0;points=[];labelPosition=center;verticalLabelPosition=top;fontSize=12;" parent="uevHiyvahyzexUpD0O_Z-41" vertex="1" connectable="0">
          <mxGeometry x="0.0994" relative="1" as="geometry">
            <mxPoint as="offset" />
          </mxGeometry>
        </mxCell>
        <mxCell id="uevHiyvahyzexUpD0O_Z-43" value="" style="group" parent="1" vertex="1" connectable="0">
          <mxGeometry x="3018.41" y="51" width="250" height="50" as="geometry" />
        </mxCell>
        <mxCell id="uevHiyvahyzexUpD0O_Z-44" value="" style="html=1;verticalAlign=bottom;endArrow=open;dashed=1;endSize=8;labelBackgroundColor=none;fontFamily=Verdana;fontSize=12;elbow=vertical;" parent="uevHiyvahyzexUpD0O_Z-43" edge="1">
          <mxGeometry relative="1" as="geometry">
            <mxPoint y="50" as="targetPoint" />
            <mxPoint x="130" as="sourcePoint" />
          </mxGeometry>
        </mxCell>
        <mxCell id="uevHiyvahyzexUpD0O_Z-45" value="" style="html=1;verticalAlign=bottom;endArrow=none;dashed=1;endSize=8;labelBackgroundColor=none;fontFamily=Verdana;fontSize=12;elbow=vertical;endFill=0;" parent="uevHiyvahyzexUpD0O_Z-43" edge="1">
          <mxGeometry relative="1" as="geometry">
            <mxPoint x="130" as="targetPoint" />
            <mxPoint x="250" as="sourcePoint" />
          </mxGeometry>
        </mxCell>
        <mxCell id="uevHiyvahyzexUpD0O_Z-46" value="GET https://op.example.com/.well-known/oauth-authorization-server&lt;br&gt;GET https://op.example.com/.well-known/openid-configuration" style="edgeLabel;html=1;align=center;verticalAlign=bottom;resizable=0;points=[];labelPosition=center;verticalLabelPosition=top;fontSize=12;" parent="uevHiyvahyzexUpD0O_Z-45" vertex="1" connectable="0">
          <mxGeometry x="0.0994" relative="1" as="geometry">
            <mxPoint as="offset" />
          </mxGeometry>
        </mxCell>
        <mxCell id="uevHiyvahyzexUpD0O_Z-47" value="" style="html=1;verticalAlign=bottom;endArrow=none;dashed=1;endSize=8;labelBackgroundColor=none;fontFamily=Verdana;fontSize=12;elbow=vertical;endFill=0;" parent="1" edge="1">
          <mxGeometry relative="1" as="geometry">
            <mxPoint x="2427.41" y="559" as="targetPoint" />
            <mxPoint x="2547.41" y="559" as="sourcePoint" />
          </mxGeometry>
        </mxCell>
        <mxCell id="uevHiyvahyzexUpD0O_Z-48" value="Client checks if &lt;span style=&quot;background-color: rgb(103, 171, 159);&quot;&gt;nonce claim&lt;/span&gt; (inside &lt;span style=&quot;background-color: rgb(103, 171, 159);&quot;&gt;ID Token&lt;/span&gt;)&amp;nbsp;&lt;br&gt;is not the same value as in request&lt;br&gt;&amp;nbsp;to &lt;span style=&quot;background-color: rgb(103, 171, 159);&quot;&gt;/auth&lt;/span&gt; endpoint&lt;br&gt;&amp;nbsp;=&amp;gt; Client drops the flow" style="edgeLabel;html=1;align=center;verticalAlign=bottom;resizable=0;points=[];labelPosition=center;verticalLabelPosition=top;fontSize=12;" parent="uevHiyvahyzexUpD0O_Z-47" vertex="1" connectable="0">
          <mxGeometry x="0.0994" relative="1" as="geometry">
            <mxPoint x="-22" as="offset" />
          </mxGeometry>
        </mxCell>
        <mxCell id="uevHiyvahyzexUpD0O_Z-49" value="&lt;span style=&quot;background-color: rgb(255, 230, 204);&quot;&gt;Client/RP&lt;/span&gt; generates &lt;br&gt;&lt;span style=&quot;background-color: rgb(103, 171, 159);&quot;&gt;code_verifier&lt;/span&gt; and &lt;span style=&quot;background-color: rgb(103, 171, 159);&quot;&gt;code_challenge&lt;/span&gt;" style="html=1;verticalAlign=bottom;endArrow=block;labelBackgroundColor=none;fontFamily=Verdana;fontSize=12;elbow=vertical;edgeStyle=orthogonalEdgeStyle;curved=1;" parent="1" edge="1">
          <mxGeometry x="1" y="-110" relative="1" as="geometry">
            <mxPoint x="2638.576666666667" y="250" as="sourcePoint" />
            <mxPoint x="2638.576666666667" y="289.0666666666666" as="targetPoint" />
            <Array as="points">
              <mxPoint x="2694.41" y="250" />
              <mxPoint x="2694.41" y="289" />
            </Array>
            <mxPoint x="-110" y="102" as="offset" />
          </mxGeometry>
        </mxCell>
        <mxCell id="uevHiyvahyzexUpD0O_Z-50" value="&lt;span style=&quot;background-color: rgb(255, 242, 204);&quot;&gt;AS/OP&lt;/span&gt;&amp;nbsp;validates &lt;span style=&quot;background-color: rgb(103, 171, 159);&quot;&gt;Authorization Code&lt;/span&gt;, &lt;br&gt;&lt;span style=&quot;background-color: rgb(103, 171, 159);&quot;&gt;Client ID&lt;/span&gt;, hash(&lt;span style=&quot;background-color: rgb(103, 171, 159);&quot;&gt;code_verifier&lt;/span&gt;)==&lt;span style=&quot;background-color: rgb(103, 171, 159);&quot;&gt;code_challenge&lt;/span&gt;" style="html=1;verticalAlign=bottom;endArrow=block;labelBackgroundColor=none;fontFamily=Verdana;fontSize=12;elbow=vertical;edgeStyle=orthogonalEdgeStyle;curved=1;" parent="1" source="uevHiyvahyzexUpD0O_Z-18" target="uevHiyvahyzexUpD0O_Z-18" edge="1">
          <mxGeometry x="0.13" y="146" relative="1" as="geometry">
            <mxPoint x="2968.4066666666668" y="540" as="sourcePoint" />
            <mxPoint x="2968.4066666666668" y="579.0666666666666" as="targetPoint" />
            <Array as="points">
              <mxPoint x="3024.41" y="540" />
              <mxPoint x="3024.41" y="579" />
            </Array>
            <mxPoint as="offset" />
          </mxGeometry>
        </mxCell>
      </root>
    </mxGraphModel>
  </diagram>
  <diagram name="Client Credential Flow" id="hYrOkpS8j-bWdERO-uZU">
    <mxGraphModel dx="2067" dy="1983" grid="1" gridSize="10" guides="1" tooltips="1" connect="1" arrows="1" fold="1" page="1" pageScale="1" pageWidth="1100" pageHeight="850" background="none" math="0" shadow="0">
      <root>
        <mxCell id="LhhEvMvnnkLYLKbo-6Z0-0" />
        <mxCell id="LhhEvMvnnkLYLKbo-6Z0-1" parent="LhhEvMvnnkLYLKbo-6Z0-0" />
        <mxCell id="LhhEvMvnnkLYLKbo-6Z0-5" value="" style="group" parent="LhhEvMvnnkLYLKbo-6Z0-1" vertex="1" connectable="0">
          <mxGeometry x="387" y="140" width="723" height="238" as="geometry" />
        </mxCell>
        <mxCell id="LhhEvMvnnkLYLKbo-6Z0-6" value="" style="group" parent="LhhEvMvnnkLYLKbo-6Z0-5" vertex="1" connectable="0">
          <mxGeometry x="409.0236336779912" y="93.27027027027026" width="266.98670605613" height="40.202702702702695" as="geometry" />
        </mxCell>
        <mxCell id="LhhEvMvnnkLYLKbo-6Z0-7" value="" style="html=1;verticalAlign=bottom;endArrow=open;dashed=1;endSize=8;labelBackgroundColor=none;fontFamily=Verdana;fontSize=12;elbow=vertical;" parent="LhhEvMvnnkLYLKbo-6Z0-6" edge="1">
          <mxGeometry relative="1" as="geometry">
            <mxPoint y="40.202702702702695" as="targetPoint" />
            <mxPoint x="138.8330871491876" as="sourcePoint" />
          </mxGeometry>
        </mxCell>
        <mxCell id="LhhEvMvnnkLYLKbo-6Z0-8" value="" style="html=1;verticalAlign=bottom;endArrow=none;dashed=1;endSize=8;labelBackgroundColor=none;fontFamily=Verdana;fontSize=12;elbow=vertical;endFill=0;" parent="LhhEvMvnnkLYLKbo-6Z0-6" edge="1">
          <mxGeometry relative="1" as="geometry">
            <mxPoint x="138.8330871491876" as="targetPoint" />
            <mxPoint x="266.98670605613" as="sourcePoint" />
          </mxGeometry>
        </mxCell>
        <mxCell id="LhhEvMvnnkLYLKbo-6Z0-9" value="&lt;span style=&quot;background-color: rgb(103, 171, 159); font-size: 12px;&quot;&gt;/userinfo&lt;/span&gt; endpoint" style="edgeLabel;html=1;align=center;verticalAlign=bottom;resizable=0;points=[];labelPosition=center;verticalLabelPosition=top;fontSize=12;" parent="LhhEvMvnnkLYLKbo-6Z0-8" vertex="1" connectable="0">
          <mxGeometry x="0.0994" relative="1" as="geometry">
            <mxPoint as="offset" />
          </mxGeometry>
        </mxCell>
        <mxCell id="LhhEvMvnnkLYLKbo-6Z0-10" value="" style="rounded=1;whiteSpace=wrap;html=1;strokeWidth=2;fontSize=30;fontColor=#000000;" parent="LhhEvMvnnkLYLKbo-6Z0-5" vertex="1">
          <mxGeometry x="4.8057607090103405" width="718.1942392909897" height="237.99999999999997" as="geometry" />
        </mxCell>
        <mxCell id="LhhEvMvnnkLYLKbo-6Z0-11" value="&lt;span style=&quot;color: rgb(0, 0, 0); font-family: Helvetica; font-style: normal; font-variant-ligatures: normal; font-variant-caps: normal; font-weight: 400; letter-spacing: normal; orphans: 2; text-align: center; text-indent: 0px; text-transform: none; widows: 2; word-spacing: 0px; -webkit-text-stroke-width: 0px; background-color: rgb(251, 251, 251); text-decoration-thickness: initial; text-decoration-style: initial; text-decoration-color: initial; float: none; display: inline !important;&quot;&gt;&lt;font style=&quot;font-size: 22px;&quot;&gt;Back-Channel&lt;/font&gt;&lt;/span&gt;" style="text;whiteSpace=wrap;html=1;rotation=-90;" parent="LhhEvMvnnkLYLKbo-6Z0-5" vertex="1">
          <mxGeometry x="-53.397341211226" y="85.22972972972971" width="170.8714918759232" height="48.24324324324324" as="geometry" />
        </mxCell>
        <mxCell id="LhhEvMvnnkLYLKbo-6Z0-12" value="" style="group" parent="LhhEvMvnnkLYLKbo-6Z0-5" vertex="1" connectable="0">
          <mxGeometry x="384.0236336779912" y="-9.207715780296425" width="266.98670605613" height="40.202702702702695" as="geometry" />
        </mxCell>
        <mxCell id="LhhEvMvnnkLYLKbo-6Z0-13" value="" style="html=1;verticalAlign=bottom;endArrow=open;dashed=1;endSize=8;labelBackgroundColor=none;fontFamily=Verdana;fontSize=12;elbow=vertical;" parent="LhhEvMvnnkLYLKbo-6Z0-12" edge="1">
          <mxGeometry relative="1" as="geometry">
            <mxPoint y="40.202702702702695" as="targetPoint" />
            <mxPoint x="138.8330871491876" as="sourcePoint" />
          </mxGeometry>
        </mxCell>
        <mxCell id="LhhEvMvnnkLYLKbo-6Z0-14" value="" style="html=1;verticalAlign=bottom;endArrow=none;dashed=1;endSize=8;labelBackgroundColor=none;fontFamily=Verdana;fontSize=12;elbow=vertical;endFill=0;" parent="LhhEvMvnnkLYLKbo-6Z0-12" edge="1">
          <mxGeometry relative="1" as="geometry">
            <mxPoint x="138.8330871491876" as="targetPoint" />
            <mxPoint x="266.98670605613" as="sourcePoint" />
          </mxGeometry>
        </mxCell>
        <mxCell id="LhhEvMvnnkLYLKbo-6Z0-15" value="&lt;span style=&quot;background-color: rgb(103, 171, 159); font-size: 12px;&quot;&gt;/token&lt;/span&gt; endpoint" style="edgeLabel;html=1;align=center;verticalAlign=bottom;resizable=0;points=[];labelPosition=center;verticalLabelPosition=top;fontSize=12;" parent="LhhEvMvnnkLYLKbo-6Z0-14" vertex="1" connectable="0">
          <mxGeometry x="0.0994" relative="1" as="geometry">
            <mxPoint as="offset" />
          </mxGeometry>
        </mxCell>
        <mxCell id="LhhEvMvnnkLYLKbo-6Z0-19" value="AS/OP" style="shape=umlLifeline;perimeter=lifelinePerimeter;whiteSpace=wrap;html=1;container=1;collapsible=0;recursiveResize=0;outlineConnect=0;rounded=1;shadow=0;comic=0;labelBackgroundColor=none;strokeWidth=2;fontFamily=Verdana;fontSize=12;align=center;fillColor=#fff2cc;strokeColor=#d6b656;" parent="LhhEvMvnnkLYLKbo-6Z0-1" vertex="1">
          <mxGeometry x="715" y="80" width="100" height="440" as="geometry" />
        </mxCell>
        <mxCell id="LhhEvMvnnkLYLKbo-6Z0-21" value="RS" style="shape=umlLifeline;perimeter=lifelinePerimeter;whiteSpace=wrap;html=1;container=1;collapsible=0;recursiveResize=0;outlineConnect=0;rounded=1;shadow=0;comic=0;labelBackgroundColor=none;strokeWidth=2;fontFamily=Verdana;fontSize=12;align=center;fillColor=#e1d5e7;strokeColor=#9673a6;" parent="LhhEvMvnnkLYLKbo-6Z0-1" vertex="1">
          <mxGeometry x="1040" y="80" width="100" height="440" as="geometry" />
        </mxCell>
        <mxCell id="LhhEvMvnnkLYLKbo-6Z0-22" value="RO" style="shape=umlLifeline;perimeter=lifelinePerimeter;whiteSpace=wrap;html=1;container=0;collapsible=0;recursiveResize=0;outlineConnect=0;rounded=1;shadow=0;comic=0;labelBackgroundColor=none;strokeWidth=2;fontFamily=Verdana;fontSize=12;align=center;fillColor=#cce5ff;strokeColor=#3399FF;" parent="LhhEvMvnnkLYLKbo-6Z0-1" vertex="1">
          <mxGeometry x="100" y="80" width="100" height="440" as="geometry" />
        </mxCell>
        <mxCell id="LhhEvMvnnkLYLKbo-6Z0-26" value="" style="shape=umlActor;verticalLabelPosition=bottom;verticalAlign=top;html=1;" parent="LhhEvMvnnkLYLKbo-6Z0-1" vertex="1">
          <mxGeometry x="135" y="16" width="30" height="60" as="geometry" />
        </mxCell>
        <mxCell id="LhhEvMvnnkLYLKbo-6Z0-27" value="&lt;b&gt;Legend:&lt;/b&gt;&lt;br&gt;&lt;br&gt;- RO = Resource Owner&lt;br&gt;- Client/RP = Client (in OAuth-speak) / Relaying Party (in OIDC speak)&amp;nbsp;&lt;br&gt;- AS/OP = Authorization Server (in OAuth-speak) / OpenID Provider (in OIDC speak)&lt;br&gt;- RS = Resource Server&lt;br&gt;- Front-Channel =&amp;nbsp;when a request from the AS/OP to the Client/RP is getting passed via the browser&#39;s address bar of the RO&lt;br&gt;- Back-Channel =&amp;nbsp;when data is exchanged between Client/RP and AS/OP without involving the RO machine or browser." style="rounded=1;whiteSpace=wrap;html=1;align=left;fillColor=#d5e8d4;strokeColor=#82b366;" parent="LhhEvMvnnkLYLKbo-6Z0-1" vertex="1">
          <mxGeometry x="370" y="-195" width="537.5" height="180" as="geometry" />
        </mxCell>
        <mxCell id="LhhEvMvnnkLYLKbo-6Z0-28" value="&lt;div class=&quot;css-1tsb9g0&quot;&gt;&lt;h5 style=&quot;text-align: center;&quot; class=&quot;MuiTypography-root MuiTypography-h5 css-gc3mlr&quot;&gt;&lt;font style=&quot;font-size: 30px;&quot;&gt;Client Credential Flow in OIDC&lt;/font&gt;&lt;/h5&gt;&lt;/div&gt;&lt;div class=&quot;css-hmvb2u&quot;&gt;&lt;div class=&quot;css-9xhug0&quot;&gt; &lt;/div&gt;&lt;/div&gt;" style="text;whiteSpace=wrap;html=1;fontColor=#000000;" parent="LhhEvMvnnkLYLKbo-6Z0-1" vertex="1">
          <mxGeometry x="397.5" y="-291" width="492.5" height="80" as="geometry" />
        </mxCell>
        <mxCell id="LhhEvMvnnkLYLKbo-6Z0-30" value="&lt;span style=&quot;background-color: rgb(255, 230, 204);&quot;&gt;Client/RP&lt;/span&gt; request an &lt;span style=&quot;background-color: rgb(103, 171, 159);&quot;&gt;Access Token&lt;/span&gt;&lt;br&gt;using &lt;span style=&quot;background-color: rgb(103, 171, 159);&quot;&gt;Client ID&lt;/span&gt; and &lt;span style=&quot;background-color: rgb(103, 171, 159);&quot;&gt;Client Secret&lt;/span&gt;&lt;br&gt;(&lt;span style=&quot;background-color: rgb(103, 171, 159);&quot;&gt;grant_type=client_credentials&lt;/span&gt;)" style="html=1;verticalAlign=bottom;endArrow=block;labelBackgroundColor=none;fontFamily=Verdana;fontSize=12;" parent="LhhEvMvnnkLYLKbo-6Z0-1" edge="1">
          <mxGeometry x="-0.0361" relative="1" as="geometry">
            <mxPoint x="430.0238095238095" y="195" as="sourcePoint" />
            <mxPoint x="764" y="195" as="targetPoint" />
            <mxPoint as="offset" />
          </mxGeometry>
        </mxCell>
        <mxCell id="LhhEvMvnnkLYLKbo-6Z0-32" value="Response with&amp;nbsp;&lt;span style=&quot;background-color: rgb(103, 171, 159);&quot;&gt;Access Token&lt;/span&gt;&amp;nbsp;" style="html=1;verticalAlign=bottom;endArrow=block;labelBackgroundColor=none;fontFamily=Verdana;fontSize=12;edgeStyle=elbowEdgeStyle;elbow=vertical;" parent="LhhEvMvnnkLYLKbo-6Z0-1" edge="1">
          <mxGeometry x="-0.0706" y="-3" relative="1" as="geometry">
            <mxPoint x="764" y="275" as="sourcePoint" />
            <Array as="points">
              <mxPoint x="655.33" y="275" />
            </Array>
            <mxPoint x="427.1666666666665" y="275" as="targetPoint" />
            <mxPoint as="offset" />
          </mxGeometry>
        </mxCell>
        <mxCell id="LhhEvMvnnkLYLKbo-6Z0-34" value="Request some information with &lt;span style=&quot;background-color: rgb(103, 171, 159);&quot;&gt;Access Token&lt;/span&gt;" style="html=1;verticalAlign=bottom;endArrow=block;labelBackgroundColor=none;fontFamily=Verdana;fontSize=12;" parent="LhhEvMvnnkLYLKbo-6Z0-1" edge="1">
          <mxGeometry x="-0.0353" relative="1" as="geometry">
            <mxPoint x="427.1666666666665" y="312" as="sourcePoint" />
            <mxPoint x="1089" y="312" as="targetPoint" />
            <mxPoint as="offset" />
            <Array as="points">
              <mxPoint x="890" y="312" />
            </Array>
          </mxGeometry>
        </mxCell>
        <mxCell id="LhhEvMvnnkLYLKbo-6Z0-35" value="Response" style="html=1;verticalAlign=bottom;endArrow=block;labelBackgroundColor=none;fontFamily=Verdana;fontSize=12;edgeStyle=elbowEdgeStyle;elbow=vertical;" parent="LhhEvMvnnkLYLKbo-6Z0-1" source="LhhEvMvnnkLYLKbo-6Z0-21" edge="1">
          <mxGeometry x="-0.0024" relative="1" as="geometry">
            <mxPoint x="1049" y="348" as="sourcePoint" />
            <Array as="points">
              <mxPoint x="915.83" y="348" />
            </Array>
            <mxPoint x="429.5" y="348" as="targetPoint" />
            <mxPoint as="offset" />
          </mxGeometry>
        </mxCell>
        <mxCell id="LhhEvMvnnkLYLKbo-6Z0-37" value="Client/RP" style="shape=umlLifeline;perimeter=lifelinePerimeter;whiteSpace=wrap;html=1;container=1;collapsible=0;recursiveResize=0;outlineConnect=0;rounded=1;shadow=0;comic=0;labelBackgroundColor=none;strokeWidth=2;fontFamily=Verdana;fontSize=12;align=center;fillColor=#ffe6cc;strokeColor=#d79b00;" parent="LhhEvMvnnkLYLKbo-6Z0-1" vertex="1">
          <mxGeometry x="379.5" y="80" width="100" height="440" as="geometry" />
        </mxCell>
        <mxCell id="LhhEvMvnnkLYLKbo-6Z0-39" value="&lt;b style=&quot;border-color: var(--border-color);&quot;&gt;&lt;font style=&quot;font-size: 16px;&quot;&gt;Security Concepts:&lt;/font&gt;&lt;/b&gt;&lt;br&gt;&lt;br&gt;- ..." style="rounded=1;whiteSpace=wrap;html=1;align=left;fillColor=#ffe6cc;strokeColor=#d79b00;" parent="LhhEvMvnnkLYLKbo-6Z0-1" vertex="1">
          <mxGeometry x="1140" y="157" width="530" height="110" as="geometry" />
        </mxCell>
        <mxCell id="LhhEvMvnnkLYLKbo-6Z0-44" value="" style="group" parent="LhhEvMvnnkLYLKbo-6Z0-1" vertex="1" connectable="0">
          <mxGeometry x="820" y="30" width="250" height="50" as="geometry" />
        </mxCell>
        <mxCell id="LhhEvMvnnkLYLKbo-6Z0-45" value="" style="html=1;verticalAlign=bottom;endArrow=open;dashed=1;endSize=8;labelBackgroundColor=none;fontFamily=Verdana;fontSize=12;elbow=vertical;" parent="LhhEvMvnnkLYLKbo-6Z0-44" edge="1">
          <mxGeometry relative="1" as="geometry">
            <mxPoint y="50" as="targetPoint" />
            <mxPoint x="130" as="sourcePoint" />
          </mxGeometry>
        </mxCell>
        <mxCell id="LhhEvMvnnkLYLKbo-6Z0-46" value="" style="html=1;verticalAlign=bottom;endArrow=none;dashed=1;endSize=8;labelBackgroundColor=none;fontFamily=Verdana;fontSize=12;elbow=vertical;endFill=0;" parent="LhhEvMvnnkLYLKbo-6Z0-44" edge="1">
          <mxGeometry relative="1" as="geometry">
            <mxPoint x="130" as="targetPoint" />
            <mxPoint x="250" as="sourcePoint" />
          </mxGeometry>
        </mxCell>
        <mxCell id="LhhEvMvnnkLYLKbo-6Z0-47" value="GET https://op.example.com/.well-known/oauth-authorization-server&lt;br&gt;GET https://op.example.com/.well-known/openid-configuration" style="edgeLabel;html=1;align=center;verticalAlign=bottom;resizable=0;points=[];labelPosition=center;verticalLabelPosition=top;fontSize=12;" parent="LhhEvMvnnkLYLKbo-6Z0-46" vertex="1" connectable="0">
          <mxGeometry x="0.0994" relative="1" as="geometry">
            <mxPoint as="offset" />
          </mxGeometry>
        </mxCell>
        <mxCell id="LhhEvMvnnkLYLKbo-6Z0-50" value="&lt;span style=&quot;background-color: rgb(255, 242, 204);&quot;&gt;AS/OP&lt;/span&gt;&amp;nbsp;validates&lt;br&gt;&lt;span style=&quot;background-color: rgb(103, 171, 159);&quot;&gt;Client ID&lt;/span&gt;, &lt;span style=&quot;background-color: rgb(103, 171, 159);&quot;&gt;Client Secret&lt;/span&gt;" style="html=1;verticalAlign=bottom;endArrow=block;labelBackgroundColor=none;fontFamily=Verdana;fontSize=12;elbow=vertical;edgeStyle=orthogonalEdgeStyle;curved=1;" parent="LhhEvMvnnkLYLKbo-6Z0-1" edge="1">
          <mxGeometry x="0.1237" y="79" relative="1" as="geometry">
            <mxPoint x="764.8235294117644" y="207.9411764705883" as="sourcePoint" />
            <mxPoint x="764.8235294117644" y="247" as="targetPoint" />
            <Array as="points">
              <mxPoint x="831" y="208" />
              <mxPoint x="831" y="247" />
            </Array>
            <mxPoint as="offset" />
          </mxGeometry>
        </mxCell>
        <mxCell id="a1EErQIWWvr-nv17Lw_B-0" value="&lt;b style=&quot;border-color: var(--border-color);&quot;&gt;&lt;font style=&quot;font-size: 16px;&quot;&gt;Useful links:&lt;/font&gt;&lt;/b&gt;&lt;br&gt;&lt;br&gt;- &lt;a href=&quot;https://developer.okta.com/docs/concepts/oauth-openid/#client-credentials-flow&quot;&gt;https://developer.okta.com/docs/concepts/oauth-openid/#client-credentials-flow&lt;/a&gt;&lt;br&gt;- &lt;a href=&quot;https://developer.okta.com/docs/guides/implement-grant-type/clientcreds/main/&quot;&gt;https://developer.okta.com/docs/guides/implement-grant-type/clientcreds/main/&lt;/a&gt;&lt;br&gt;- &lt;a href=&quot;https://www.azureblue.io/oauth-2-0-openid-connect-part-3-client-credentials/&quot;&gt;https://www.azureblue.io/oauth-2-0-openid-connect-part-3-client-credentials/&lt;/a&gt;&lt;br&gt;- &lt;a href=&quot;https://www.oauth.com/oauth2-servers/access-tokens/client-credentials/&quot;&gt;https://www.oauth.com/oauth2-servers/access-tokens/client-credentials/&lt;/a&gt;&lt;br&gt;- &lt;a href=&quot;https://www.youtube.com/watch?v=hGatG58RrOo&quot;&gt;client credentials flow implementation in keycloak&lt;/a&gt;" style="rounded=1;whiteSpace=wrap;html=1;align=left;fillColor=#dae8fc;strokeColor=#6c8ebf;" parent="LhhEvMvnnkLYLKbo-6Z0-1" vertex="1">
          <mxGeometry x="1050" y="-195" width="530" height="165" as="geometry" />
        </mxCell>
        <mxCell id="Do4wHdLGEPbpfccqEJY3-0" value="" style="endArrow=none;html=1;rounded=0;fillColor=#f8cecc;strokeColor=#FF0000;" parent="LhhEvMvnnkLYLKbo-6Z0-1" edge="1">
          <mxGeometry width="50" height="50" relative="1" as="geometry">
            <mxPoint x="85" y="140" as="sourcePoint" />
            <mxPoint x="215" y="10" as="targetPoint" />
          </mxGeometry>
        </mxCell>
        <mxCell id="Do4wHdLGEPbpfccqEJY3-1" value="" style="endArrow=none;html=1;rounded=0;fillColor=#f8cecc;strokeColor=#FF0000;" parent="LhhEvMvnnkLYLKbo-6Z0-1" edge="1">
          <mxGeometry width="50" height="50" relative="1" as="geometry">
            <mxPoint x="95" y="10" as="sourcePoint" />
            <mxPoint x="215" y="140" as="targetPoint" />
          </mxGeometry>
        </mxCell>
        <mxCell id="Do4wHdLGEPbpfccqEJY3-2" value="&lt;span style=&quot;border-color: var(--border-color);&quot;&gt;&lt;font style=&quot;font-size: 16px;&quot;&gt;&lt;b&gt;Client Credentials Flow&lt;/b&gt; is only for &lt;b&gt;Server-to-Server&lt;/b&gt;, so &lt;b&gt;RO&lt;/b&gt; is not involved in this process&lt;/font&gt;&lt;/span&gt;" style="rounded=1;whiteSpace=wrap;html=1;align=left;fillColor=#FF9999;strokeColor=#d79b00;" parent="LhhEvMvnnkLYLKbo-6Z0-1" vertex="1">
          <mxGeometry x="20" y="-90" width="280" height="90" as="geometry" />
        </mxCell>
      </root>
    </mxGraphModel>
  </diagram>
  <diagram name="Refresh Token Flow" id="Mh-Cnb13rHzpgsUhzPsa">
    <mxGraphModel dx="1564" dy="1750" grid="1" gridSize="10" guides="1" tooltips="1" connect="1" arrows="1" fold="1" page="1" pageScale="1" pageWidth="1100" pageHeight="850" background="none" math="0" shadow="0">
      <root>
        <mxCell id="nnS-5rchoEb2h6VflhgT-0" />
        <mxCell id="nnS-5rchoEb2h6VflhgT-1" parent="nnS-5rchoEb2h6VflhgT-0" />
        <mxCell id="nnS-5rchoEb2h6VflhgT-2" value="" style="group" vertex="1" connectable="0" parent="nnS-5rchoEb2h6VflhgT-1">
          <mxGeometry x="120" y="777" width="330" height="170" as="geometry" />
        </mxCell>
        <mxCell id="nnS-5rchoEb2h6VflhgT-3" value="" style="rounded=1;whiteSpace=wrap;html=1;strokeWidth=2;fontSize=30;fontColor=#000000;labelPosition=center;verticalLabelPosition=top;align=center;verticalAlign=bottom;" vertex="1" parent="nnS-5rchoEb2h6VflhgT-2">
          <mxGeometry x="-10" width="340" height="170" as="geometry" />
        </mxCell>
        <mxCell id="nnS-5rchoEb2h6VflhgT-4" value="&lt;span style=&quot;color: rgb(0, 0, 0); font-family: Helvetica; font-style: normal; font-variant-ligatures: normal; font-variant-caps: normal; font-weight: 400; letter-spacing: normal; orphans: 2; text-align: center; text-indent: 0px; text-transform: none; widows: 2; word-spacing: 0px; -webkit-text-stroke-width: 0px; background-color: rgb(251, 251, 251); text-decoration-thickness: initial; text-decoration-style: initial; text-decoration-color: initial; float: none; display: inline !important;&quot;&gt;&lt;font style=&quot;font-size: 22px;&quot;&gt;Front-Channel&lt;/font&gt;&lt;/span&gt;" style="text;whiteSpace=wrap;html=1;rotation=-90;" vertex="1" parent="nnS-5rchoEb2h6VflhgT-2">
          <mxGeometry x="-66.64" y="67.93" width="150.51" height="29.03" as="geometry" />
        </mxCell>
        <mxCell id="nnS-5rchoEb2h6VflhgT-5" value="" style="group" vertex="1" connectable="0" parent="nnS-5rchoEb2h6VflhgT-1">
          <mxGeometry x="387" y="473" width="677" height="296" as="geometry" />
        </mxCell>
        <mxCell id="nnS-5rchoEb2h6VflhgT-6" value="" style="group" vertex="1" connectable="0" parent="nnS-5rchoEb2h6VflhgT-5">
          <mxGeometry x="383" y="116" width="250" height="50" as="geometry" />
        </mxCell>
        <mxCell id="nnS-5rchoEb2h6VflhgT-7" value="" style="html=1;verticalAlign=bottom;endArrow=open;dashed=1;endSize=8;labelBackgroundColor=none;fontFamily=Verdana;fontSize=12;elbow=vertical;" edge="1" parent="nnS-5rchoEb2h6VflhgT-6">
          <mxGeometry relative="1" as="geometry">
            <mxPoint y="50" as="targetPoint" />
            <mxPoint x="130" as="sourcePoint" />
          </mxGeometry>
        </mxCell>
        <mxCell id="nnS-5rchoEb2h6VflhgT-8" value="" style="html=1;verticalAlign=bottom;endArrow=none;dashed=1;endSize=8;labelBackgroundColor=none;fontFamily=Verdana;fontSize=12;elbow=vertical;endFill=0;" edge="1" parent="nnS-5rchoEb2h6VflhgT-6">
          <mxGeometry relative="1" as="geometry">
            <mxPoint x="130" as="targetPoint" />
            <mxPoint x="250" as="sourcePoint" />
          </mxGeometry>
        </mxCell>
        <mxCell id="nnS-5rchoEb2h6VflhgT-9" value="&lt;span style=&quot;background-color: rgb(103, 171, 159); font-size: 12px;&quot;&gt;/userinfo&lt;/span&gt; endpoint" style="edgeLabel;html=1;align=center;verticalAlign=bottom;resizable=0;points=[];labelPosition=center;verticalLabelPosition=top;fontSize=12;" vertex="1" connectable="0" parent="nnS-5rchoEb2h6VflhgT-8">
          <mxGeometry x="0.0994" relative="1" as="geometry">
            <mxPoint as="offset" />
          </mxGeometry>
        </mxCell>
        <mxCell id="nnS-5rchoEb2h6VflhgT-10" value="" style="rounded=1;whiteSpace=wrap;html=1;strokeWidth=2;fontSize=30;fontColor=#000000;" vertex="1" parent="nnS-5rchoEb2h6VflhgT-5">
          <mxGeometry x="4.5" width="672.5" height="296" as="geometry" />
        </mxCell>
        <mxCell id="nnS-5rchoEb2h6VflhgT-11" value="&lt;span style=&quot;color: rgb(0, 0, 0); font-family: Helvetica; font-style: normal; font-variant-ligatures: normal; font-variant-caps: normal; font-weight: 400; letter-spacing: normal; orphans: 2; text-align: center; text-indent: 0px; text-transform: none; widows: 2; word-spacing: 0px; -webkit-text-stroke-width: 0px; background-color: rgb(251, 251, 251); text-decoration-thickness: initial; text-decoration-style: initial; text-decoration-color: initial; float: none; display: inline !important;&quot;&gt;&lt;font style=&quot;font-size: 22px;&quot;&gt;Back-Channel&lt;/font&gt;&lt;/span&gt;" style="text;whiteSpace=wrap;html=1;rotation=-90;" vertex="1" parent="nnS-5rchoEb2h6VflhgT-5">
          <mxGeometry x="-50" y="106" width="160" height="60" as="geometry" />
        </mxCell>
        <mxCell id="nnS-5rchoEb2h6VflhgT-12" value="" style="group" vertex="1" connectable="0" parent="nnS-5rchoEb2h6VflhgT-5">
          <mxGeometry x="383" y="-21" width="250" height="50" as="geometry" />
        </mxCell>
        <mxCell id="nnS-5rchoEb2h6VflhgT-13" value="" style="html=1;verticalAlign=bottom;endArrow=open;dashed=1;endSize=8;labelBackgroundColor=none;fontFamily=Verdana;fontSize=12;elbow=vertical;" edge="1" parent="nnS-5rchoEb2h6VflhgT-12">
          <mxGeometry relative="1" as="geometry">
            <mxPoint y="50" as="targetPoint" />
            <mxPoint x="130" as="sourcePoint" />
          </mxGeometry>
        </mxCell>
        <mxCell id="nnS-5rchoEb2h6VflhgT-14" value="" style="html=1;verticalAlign=bottom;endArrow=none;dashed=1;endSize=8;labelBackgroundColor=none;fontFamily=Verdana;fontSize=12;elbow=vertical;endFill=0;" edge="1" parent="nnS-5rchoEb2h6VflhgT-12">
          <mxGeometry relative="1" as="geometry">
            <mxPoint x="130" as="targetPoint" />
            <mxPoint x="250" as="sourcePoint" />
          </mxGeometry>
        </mxCell>
        <mxCell id="nnS-5rchoEb2h6VflhgT-15" value="&lt;span style=&quot;background-color: rgb(103, 171, 159); font-size: 12px;&quot;&gt;/token&lt;/span&gt; endpoint" style="edgeLabel;html=1;align=center;verticalAlign=bottom;resizable=0;points=[];labelPosition=center;verticalLabelPosition=top;fontSize=12;" vertex="1" connectable="0" parent="nnS-5rchoEb2h6VflhgT-14">
          <mxGeometry x="0.0994" relative="1" as="geometry">
            <mxPoint as="offset" />
          </mxGeometry>
        </mxCell>
        <mxCell id="nnS-5rchoEb2h6VflhgT-16" value="" style="group" vertex="1" connectable="0" parent="nnS-5rchoEb2h6VflhgT-1">
          <mxGeometry x="100" y="130" width="760" height="333" as="geometry" />
        </mxCell>
        <mxCell id="nnS-5rchoEb2h6VflhgT-17" value="" style="rounded=1;whiteSpace=wrap;html=1;strokeWidth=2;fontSize=30;fontColor=#000000;labelPosition=center;verticalLabelPosition=top;align=center;verticalAlign=bottom;" vertex="1" parent="nnS-5rchoEb2h6VflhgT-16">
          <mxGeometry x="4.840764331210191" width="755.1592356687898" height="333" as="geometry" />
        </mxCell>
        <mxCell id="nnS-5rchoEb2h6VflhgT-18" value="&lt;span style=&quot;color: rgb(0, 0, 0); font-family: Helvetica; font-style: normal; font-variant-ligatures: normal; font-variant-caps: normal; font-weight: 400; letter-spacing: normal; orphans: 2; text-align: center; text-indent: 0px; text-transform: none; widows: 2; word-spacing: 0px; -webkit-text-stroke-width: 0px; background-color: rgb(251, 251, 251); text-decoration-thickness: initial; text-decoration-style: initial; text-decoration-color: initial; float: none; display: inline !important;&quot;&gt;&lt;font style=&quot;font-size: 22px;&quot;&gt;Front-Channel&lt;/font&gt;&lt;/span&gt;" style="text;whiteSpace=wrap;html=1;rotation=-90;" vertex="1" parent="nnS-5rchoEb2h6VflhgT-16">
          <mxGeometry x="-48.40764331210191" y="127.82903225806452" width="154.9044585987261" height="64.45161290322581" as="geometry" />
        </mxCell>
        <mxCell id="nnS-5rchoEb2h6VflhgT-19" value="AS/OP" style="shape=umlLifeline;perimeter=lifelinePerimeter;whiteSpace=wrap;html=1;container=1;collapsible=0;recursiveResize=0;outlineConnect=0;rounded=1;shadow=0;comic=0;labelBackgroundColor=none;strokeWidth=2;fontFamily=Verdana;fontSize=12;align=center;fillColor=#fff2cc;strokeColor=#d6b656;" vertex="1" parent="nnS-5rchoEb2h6VflhgT-1">
          <mxGeometry x="715" y="80" width="100" height="800" as="geometry" />
        </mxCell>
        <mxCell id="nnS-5rchoEb2h6VflhgT-20" value="Request userinfo using&amp;nbsp;&lt;span style=&quot;background-color: rgb(103, 171, 159);&quot;&gt;Access Token&lt;/span&gt;&amp;nbsp;" style="html=1;verticalAlign=bottom;endArrow=block;labelBackgroundColor=none;fontFamily=Verdana;fontSize=12;" edge="1" parent="nnS-5rchoEb2h6VflhgT-19">
          <mxGeometry x="-0.0353" relative="1" as="geometry">
            <mxPoint x="-285.5" y="557" as="sourcePoint" />
            <mxPoint x="49" y="557" as="targetPoint" />
            <mxPoint as="offset" />
          </mxGeometry>
        </mxCell>
        <mxCell id="nnS-5rchoEb2h6VflhgT-21" value="RS" style="shape=umlLifeline;perimeter=lifelinePerimeter;whiteSpace=wrap;html=1;container=1;collapsible=0;recursiveResize=0;outlineConnect=0;rounded=1;shadow=0;comic=0;labelBackgroundColor=none;strokeWidth=2;fontFamily=Verdana;fontSize=12;align=center;fillColor=#e1d5e7;strokeColor=#9673a6;" vertex="1" parent="nnS-5rchoEb2h6VflhgT-1">
          <mxGeometry x="1040" y="80" width="100" height="800" as="geometry" />
        </mxCell>
        <mxCell id="nnS-5rchoEb2h6VflhgT-22" value="RO" style="shape=umlLifeline;perimeter=lifelinePerimeter;whiteSpace=wrap;html=1;container=0;collapsible=0;recursiveResize=0;outlineConnect=0;rounded=1;shadow=0;comic=0;labelBackgroundColor=none;strokeWidth=2;fontFamily=Verdana;fontSize=12;align=center;fillColor=#cce5ff;strokeColor=#3399FF;" vertex="1" parent="nnS-5rchoEb2h6VflhgT-1">
          <mxGeometry x="100" y="80" width="100" height="800" as="geometry" />
        </mxCell>
        <mxCell id="nnS-5rchoEb2h6VflhgT-23" value="&lt;span style=&quot;background-color: rgb(204, 229, 255);&quot;&gt;RO&lt;/span&gt; enter Credentials and &lt;span style=&quot;background-color: rgb(103, 171, 159);&quot;&gt;Consent&lt;/span&gt;" style="html=1;verticalAlign=bottom;endArrow=block;labelBackgroundColor=none;fontFamily=Verdana;fontSize=12;" edge="1" parent="nnS-5rchoEb2h6VflhgT-1">
          <mxGeometry relative="1" as="geometry">
            <mxPoint x="149.94736842105272" y="393" as="sourcePoint" />
            <mxPoint x="764" y="393" as="targetPoint" />
            <mxPoint as="offset" />
          </mxGeometry>
        </mxCell>
        <mxCell id="nnS-5rchoEb2h6VflhgT-24" value="&lt;span style=&quot;background-color: rgb(204, 229, 255);&quot;&gt;RO&lt;/span&gt; visits &quot;yourapp.com&quot; (&lt;span style=&quot;background-color: rgb(255, 230, 204);&quot;&gt;Client/RP&lt;/span&gt;)&lt;br&gt;and clicks &quot;Sign up with ... Google&quot;" style="html=1;verticalAlign=bottom;endArrow=block;labelBackgroundColor=none;fontFamily=Verdana;fontSize=12;edgeStyle=elbowEdgeStyle;elbow=vertical;" edge="1" parent="nnS-5rchoEb2h6VflhgT-1">
          <mxGeometry relative="1" as="geometry">
            <mxPoint x="149.99999999999977" y="229" as="sourcePoint" />
            <mxPoint x="429" y="229.14285714285734" as="targetPoint" />
          </mxGeometry>
        </mxCell>
        <mxCell id="nnS-5rchoEb2h6VflhgT-25" value="&lt;span style=&quot;background-color: rgb(255, 230, 204);&quot;&gt;Client/RP&lt;/span&gt; redirects &lt;span style=&quot;background-color: rgb(204, 229, 255);&quot;&gt;RO&lt;/span&gt; to &lt;br&gt;&quot;https://accounts.google.com/.../auth?&lt;br&gt;&lt;span style=&quot;background-color: rgb(103, 171, 159);&quot;&gt;client_id&lt;/span&gt;=&lt;span style=&quot;background-color: rgb(255, 153, 153);&quot;&gt;&amp;lt;client_id&amp;gt;&lt;/span&gt;&amp;amp;&lt;br&gt;&lt;span style=&quot;background-color: rgb(103, 171, 159);&quot;&gt;redirect_uri&lt;/span&gt;=&lt;span style=&quot;background-color: rgb(255, 153, 153);&quot;&gt;https://yourapp.com/signin&lt;/span&gt;&amp;amp;&lt;br&gt;&lt;span style=&quot;background-color: rgb(103, 171, 159);&quot;&gt;scope&lt;/span&gt;=&lt;span style=&quot;background-color: rgb(255, 153, 153);&quot;&gt;openid profile email&lt;/span&gt;&amp;amp;&lt;br&gt;&lt;span style=&quot;background-color: rgb(103, 171, 159);&quot;&gt;response_type&lt;/span&gt;=&lt;span style=&quot;background-color: rgb(255, 153, 153);&quot;&gt;code&lt;/span&gt;&amp;amp;&lt;br&gt;&lt;span style=&quot;background-color: rgb(103, 171, 159);&quot;&gt;state&lt;/span&gt;=&lt;span style=&quot;background-color: rgb(255, 153, 153);&quot;&gt;something&amp;amp;&lt;br&gt;&lt;/span&gt;&lt;span style=&quot;background-color: rgb(103, 171, 159);&quot;&gt;nonce&lt;/span&gt;=&lt;span style=&quot;background-color: rgb(255, 153, 153);&quot;&gt;some_secure_hash&amp;amp;&lt;/span&gt;&quot;" style="html=1;verticalAlign=bottom;endArrow=block;labelBackgroundColor=none;fontFamily=Verdana;fontSize=12;edgeStyle=elbowEdgeStyle;elbow=vertical;" edge="1" parent="nnS-5rchoEb2h6VflhgT-1">
          <mxGeometry x="0.0652" relative="1" as="geometry">
            <mxPoint x="429.8103448275863" y="284.0344827586207" as="sourcePoint" />
            <mxPoint x="764" y="283.3333333333335" as="targetPoint" />
            <mxPoint as="offset" />
          </mxGeometry>
        </mxCell>
        <mxCell id="nnS-5rchoEb2h6VflhgT-26" value="" style="shape=umlActor;verticalLabelPosition=bottom;verticalAlign=top;html=1;" vertex="1" parent="nnS-5rchoEb2h6VflhgT-1">
          <mxGeometry x="135" y="16" width="30" height="60" as="geometry" />
        </mxCell>
        <mxCell id="nnS-5rchoEb2h6VflhgT-27" value="&lt;b&gt;Legend:&lt;/b&gt;&lt;br&gt;&lt;br&gt;- RO = Resource Owner&lt;br&gt;- Client/RP = Client (in OAuth-speak) / Relaying Party (in OIDC speak)&amp;nbsp;&lt;br&gt;- AS/OP = Authorization Server (in OAuth-speak) / OpenID Provider (in OIDC speak)&lt;br&gt;- RS = Resource Server&lt;br&gt;- Front-Channel =&amp;nbsp;when a request from the AS/OP to the Client/RP is getting passed via the browser&#39;s address bar of the RO&lt;br&gt;- Back-Channel =&amp;nbsp;when data is exchanged between Client/RP and AS/OP without involving the RO machine or browser." style="rounded=1;whiteSpace=wrap;html=1;align=left;fillColor=#d5e8d4;strokeColor=#82b366;" vertex="1" parent="nnS-5rchoEb2h6VflhgT-1">
          <mxGeometry x="370" y="-195" width="537.5" height="180" as="geometry" />
        </mxCell>
        <mxCell id="nnS-5rchoEb2h6VflhgT-28" value="&lt;div class=&quot;css-1tsb9g0&quot;&gt;&lt;h5 style=&quot;text-align: center;&quot; class=&quot;MuiTypography-root MuiTypography-h5 css-gc3mlr&quot;&gt;&lt;font style=&quot;font-size: 30px;&quot;&gt;Refresh Token Flow in OIDC&lt;/font&gt;&lt;/h5&gt;&lt;/div&gt;&lt;div class=&quot;css-hmvb2u&quot;&gt;&lt;div class=&quot;css-9xhug0&quot;&gt; &lt;/div&gt;&lt;/div&gt;" style="text;whiteSpace=wrap;html=1;fontColor=#000000;" vertex="1" parent="nnS-5rchoEb2h6VflhgT-1">
          <mxGeometry x="397.5" y="-291" width="492.5" height="80" as="geometry" />
        </mxCell>
        <mxCell id="nnS-5rchoEb2h6VflhgT-29" value="Redirect&amp;nbsp;&lt;span style=&quot;background-color: rgb(204, 229, 255);&quot;&gt;RO&lt;/span&gt;&amp;nbsp;to &lt;span style=&quot;background-color: rgb(255, 230, 204);&quot;&gt;Client/RP&lt;/span&gt; &lt;span style=&quot;background-color: rgb(103, 171, 159);&quot;&gt;redirect_uri&lt;/span&gt; with &lt;br&gt;&lt;span style=&quot;background-color: rgb(103, 171, 159);&quot;&gt;Authorization Code&lt;/span&gt;&amp;nbsp;" style="html=1;verticalAlign=bottom;endArrow=block;labelBackgroundColor=none;fontFamily=Verdana;fontSize=12;edgeStyle=elbowEdgeStyle;elbow=vertical;" edge="1" parent="nnS-5rchoEb2h6VflhgT-1">
          <mxGeometry x="-0.0706" y="-3" relative="1" as="geometry">
            <mxPoint x="764" y="448" as="sourcePoint" />
            <Array as="points">
              <mxPoint x="655" y="448" />
            </Array>
            <mxPoint x="427.1666666666665" y="448" as="targetPoint" />
            <mxPoint as="offset" />
          </mxGeometry>
        </mxCell>
        <mxCell id="nnS-5rchoEb2h6VflhgT-30" value="&lt;span style=&quot;background-color: rgb(255, 230, 204);&quot;&gt;Client/RP&lt;/span&gt; request an &lt;span style=&quot;background-color: rgb(103, 171, 159);&quot;&gt;Access Token&lt;/span&gt; and &lt;span style=&quot;background-color: rgb(103, 171, 159);&quot;&gt;ID Token&lt;/span&gt;&lt;br&gt;using &lt;span style=&quot;background-color: rgb(103, 171, 159);&quot;&gt;Authorization Code&lt;/span&gt;, &lt;span style=&quot;background-color: rgb(103, 171, 159);&quot;&gt;Client ID&lt;/span&gt; and &lt;span style=&quot;background-color: rgb(103, 171, 159);&quot;&gt;Client Secret&lt;/span&gt;" style="html=1;verticalAlign=bottom;endArrow=block;labelBackgroundColor=none;fontFamily=Verdana;fontSize=12;" edge="1" parent="nnS-5rchoEb2h6VflhgT-1">
          <mxGeometry x="-0.0369" relative="1" as="geometry">
            <mxPoint x="430.0238095238095" y="507" as="sourcePoint" />
            <mxPoint x="764" y="507" as="targetPoint" />
            <mxPoint as="offset" />
          </mxGeometry>
        </mxCell>
        <mxCell id="nnS-5rchoEb2h6VflhgT-31" value="Ask&amp;nbsp;&lt;span style=&quot;background-color: rgb(204, 229, 255);&quot;&gt;RO&lt;/span&gt;&amp;nbsp;for Login and&amp;nbsp;&lt;span style=&quot;border-color: var(--border-color); background-color: rgb(103, 171, 159);&quot;&gt;Consent&lt;/span&gt;&amp;nbsp;" style="html=1;verticalAlign=bottom;endArrow=none;labelBackgroundColor=none;fontFamily=Verdana;fontSize=12;startArrow=block;startFill=1;endFill=0;" edge="1" parent="nnS-5rchoEb2h6VflhgT-1">
          <mxGeometry relative="1" as="geometry">
            <mxPoint x="150" y="346" as="sourcePoint" />
            <mxPoint x="764" y="346" as="targetPoint" />
            <mxPoint as="offset" />
          </mxGeometry>
        </mxCell>
        <mxCell id="nnS-5rchoEb2h6VflhgT-32" value="Response with&amp;nbsp;&lt;span style=&quot;background-color: rgb(103, 171, 159);&quot;&gt;Access Token&lt;/span&gt;&amp;nbsp;and&amp;nbsp;&lt;span style=&quot;border-color: var(--border-color); background-color: rgb(103, 171, 159);&quot;&gt;ID Token&lt;/span&gt;&amp;nbsp;&lt;br&gt;(and optionally &lt;span style=&quot;background-color: rgb(103, 171, 159);&quot;&gt;Refresh Token&lt;/span&gt;)" style="html=1;verticalAlign=bottom;endArrow=block;labelBackgroundColor=none;fontFamily=Verdana;fontSize=12;edgeStyle=elbowEdgeStyle;elbow=vertical;" edge="1" parent="nnS-5rchoEb2h6VflhgT-1">
          <mxGeometry x="-0.0706" y="-3" relative="1" as="geometry">
            <mxPoint x="764" y="587" as="sourcePoint" />
            <Array as="points">
              <mxPoint x="655.33" y="587" />
            </Array>
            <mxPoint x="427.1666666666665" y="587" as="targetPoint" />
            <mxPoint as="offset" />
          </mxGeometry>
        </mxCell>
        <mxCell id="nnS-5rchoEb2h6VflhgT-33" value="Userinfo response" style="html=1;verticalAlign=bottom;endArrow=block;labelBackgroundColor=none;fontFamily=Verdana;fontSize=12;edgeStyle=elbowEdgeStyle;elbow=vertical;" edge="1" parent="nnS-5rchoEb2h6VflhgT-1">
          <mxGeometry x="-0.0706" y="-3" relative="1" as="geometry">
            <mxPoint x="764" y="682" as="sourcePoint" />
            <Array as="points">
              <mxPoint x="770" y="682" />
            </Array>
            <mxPoint x="430" y="682" as="targetPoint" />
            <mxPoint as="offset" />
          </mxGeometry>
        </mxCell>
        <mxCell id="nnS-5rchoEb2h6VflhgT-34" value="Request some information with &lt;span style=&quot;background-color: rgb(103, 171, 159);&quot;&gt;Access Token&lt;/span&gt;" style="html=1;verticalAlign=bottom;endArrow=block;labelBackgroundColor=none;fontFamily=Verdana;fontSize=12;" edge="1" parent="nnS-5rchoEb2h6VflhgT-1">
          <mxGeometry x="-0.0353" relative="1" as="geometry">
            <mxPoint x="427.1666666666665" y="717" as="sourcePoint" />
            <mxPoint x="1089" y="717" as="targetPoint" />
            <mxPoint as="offset" />
            <Array as="points">
              <mxPoint x="890" y="717" />
            </Array>
          </mxGeometry>
        </mxCell>
        <mxCell id="nnS-5rchoEb2h6VflhgT-35" value="Response" style="html=1;verticalAlign=bottom;endArrow=block;labelBackgroundColor=none;fontFamily=Verdana;fontSize=12;edgeStyle=elbowEdgeStyle;elbow=vertical;" edge="1" parent="nnS-5rchoEb2h6VflhgT-1">
          <mxGeometry x="-0.0024" relative="1" as="geometry">
            <mxPoint x="1049" y="753" as="sourcePoint" />
            <Array as="points">
              <mxPoint x="915.83" y="753" />
            </Array>
            <mxPoint x="429.5" y="753" as="targetPoint" />
            <mxPoint as="offset" />
          </mxGeometry>
        </mxCell>
        <mxCell id="nnS-5rchoEb2h6VflhgT-36" value="&lt;span style=&quot;background-color: rgb(255, 230, 204);&quot;&gt;Client/RP&lt;/span&gt; redirect &lt;span style=&quot;background-color: rgb(204, 229, 255);&quot;&gt;RO&lt;/span&gt;, &lt;br&gt;e.g. to the main application page" style="html=1;verticalAlign=bottom;endArrow=block;labelBackgroundColor=none;fontFamily=Verdana;fontSize=12;edgeStyle=elbowEdgeStyle;elbow=vertical;" edge="1" parent="nnS-5rchoEb2h6VflhgT-1">
          <mxGeometry x="-0.0706" y="-3" relative="1" as="geometry">
            <mxPoint x="428.50000000000045" y="825" as="sourcePoint" />
            <Array as="points">
              <mxPoint x="216.01000000000005" y="825" />
            </Array>
            <mxPoint x="149.57142857142844" y="825" as="targetPoint" />
            <mxPoint as="offset" />
          </mxGeometry>
        </mxCell>
        <mxCell id="nnS-5rchoEb2h6VflhgT-37" value="Client/RP" style="shape=umlLifeline;perimeter=lifelinePerimeter;whiteSpace=wrap;html=1;container=1;collapsible=0;recursiveResize=0;outlineConnect=0;rounded=1;shadow=0;comic=0;labelBackgroundColor=none;strokeWidth=2;fontFamily=Verdana;fontSize=12;align=center;fillColor=#ffe6cc;strokeColor=#d79b00;" vertex="1" parent="nnS-5rchoEb2h6VflhgT-1">
          <mxGeometry x="379.5" y="80" width="100" height="800" as="geometry" />
        </mxCell>
        <mxCell id="nnS-5rchoEb2h6VflhgT-38" value="" style="html=1;verticalAlign=bottom;endArrow=open;dashed=1;endSize=8;labelBackgroundColor=none;fontFamily=Verdana;fontSize=12;elbow=vertical;" edge="1" parent="nnS-5rchoEb2h6VflhgT-37">
          <mxGeometry relative="1" as="geometry">
            <mxPoint x="50.5" y="509" as="targetPoint" />
            <mxPoint x="-29.5" y="459" as="sourcePoint" />
          </mxGeometry>
        </mxCell>
        <mxCell id="nnS-5rchoEb2h6VflhgT-39" value="&lt;b style=&quot;border-color: var(--border-color);&quot;&gt;&lt;font style=&quot;font-size: 16px;&quot;&gt;Security Concepts:&lt;/font&gt;&lt;/b&gt;&lt;br&gt;&lt;br&gt;- &quot;state&quot; parameter is used for CSRF Protection&lt;br&gt;- &quot;nonce&quot; parameter is used for Server-Side Replay Protection&lt;br&gt;- ..." style="rounded=1;whiteSpace=wrap;html=1;align=left;fillColor=#ffe6cc;strokeColor=#d79b00;" vertex="1" parent="nnS-5rchoEb2h6VflhgT-1">
          <mxGeometry x="1140" y="157" width="530" height="110" as="geometry" />
        </mxCell>
        <mxCell id="nnS-5rchoEb2h6VflhgT-40" value="" style="group" vertex="1" connectable="0" parent="nnS-5rchoEb2h6VflhgT-1">
          <mxGeometry x="770" y="227" width="250" height="50" as="geometry" />
        </mxCell>
        <mxCell id="nnS-5rchoEb2h6VflhgT-41" value="" style="html=1;verticalAlign=bottom;endArrow=open;dashed=1;endSize=8;labelBackgroundColor=none;fontFamily=Verdana;fontSize=12;elbow=vertical;" edge="1" parent="nnS-5rchoEb2h6VflhgT-40">
          <mxGeometry relative="1" as="geometry">
            <mxPoint y="50" as="targetPoint" />
            <mxPoint x="130" as="sourcePoint" />
          </mxGeometry>
        </mxCell>
        <mxCell id="nnS-5rchoEb2h6VflhgT-42" value="" style="html=1;verticalAlign=bottom;endArrow=none;dashed=1;endSize=8;labelBackgroundColor=none;fontFamily=Verdana;fontSize=12;elbow=vertical;endFill=0;" edge="1" parent="nnS-5rchoEb2h6VflhgT-40">
          <mxGeometry relative="1" as="geometry">
            <mxPoint x="130" as="targetPoint" />
            <mxPoint x="250" as="sourcePoint" />
          </mxGeometry>
        </mxCell>
        <mxCell id="nnS-5rchoEb2h6VflhgT-43" value="&lt;span style=&quot;background-color: rgb(103, 171, 159); font-size: 12px;&quot;&gt;/auth&lt;/span&gt;&amp;nbsp;endpoint" style="edgeLabel;html=1;align=center;verticalAlign=bottom;resizable=0;points=[];labelPosition=center;verticalLabelPosition=top;fontSize=12;" vertex="1" connectable="0" parent="nnS-5rchoEb2h6VflhgT-42">
          <mxGeometry x="0.0994" relative="1" as="geometry">
            <mxPoint as="offset" />
          </mxGeometry>
        </mxCell>
        <mxCell id="nnS-5rchoEb2h6VflhgT-44" value="" style="group" vertex="1" connectable="0" parent="nnS-5rchoEb2h6VflhgT-1">
          <mxGeometry x="820" y="30" width="250" height="50" as="geometry" />
        </mxCell>
        <mxCell id="nnS-5rchoEb2h6VflhgT-45" value="" style="html=1;verticalAlign=bottom;endArrow=open;dashed=1;endSize=8;labelBackgroundColor=none;fontFamily=Verdana;fontSize=12;elbow=vertical;" edge="1" parent="nnS-5rchoEb2h6VflhgT-44">
          <mxGeometry relative="1" as="geometry">
            <mxPoint y="50" as="targetPoint" />
            <mxPoint x="130" as="sourcePoint" />
          </mxGeometry>
        </mxCell>
        <mxCell id="nnS-5rchoEb2h6VflhgT-46" value="" style="html=1;verticalAlign=bottom;endArrow=none;dashed=1;endSize=8;labelBackgroundColor=none;fontFamily=Verdana;fontSize=12;elbow=vertical;endFill=0;" edge="1" parent="nnS-5rchoEb2h6VflhgT-44">
          <mxGeometry relative="1" as="geometry">
            <mxPoint x="130" as="targetPoint" />
            <mxPoint x="250" as="sourcePoint" />
          </mxGeometry>
        </mxCell>
        <mxCell id="nnS-5rchoEb2h6VflhgT-47" value="GET https://op.example.com/.well-known/oauth-authorization-server&lt;br&gt;GET https://op.example.com/.well-known/openid-configuration" style="edgeLabel;html=1;align=center;verticalAlign=bottom;resizable=0;points=[];labelPosition=center;verticalLabelPosition=top;fontSize=12;" vertex="1" connectable="0" parent="nnS-5rchoEb2h6VflhgT-46">
          <mxGeometry x="0.0994" relative="1" as="geometry">
            <mxPoint as="offset" />
          </mxGeometry>
        </mxCell>
        <mxCell id="nnS-5rchoEb2h6VflhgT-48" value="" style="html=1;verticalAlign=bottom;endArrow=none;dashed=1;endSize=8;labelBackgroundColor=none;fontFamily=Verdana;fontSize=12;elbow=vertical;endFill=0;" edge="1" parent="nnS-5rchoEb2h6VflhgT-1">
          <mxGeometry relative="1" as="geometry">
            <mxPoint x="229" y="538" as="targetPoint" />
            <mxPoint x="349" y="538" as="sourcePoint" />
          </mxGeometry>
        </mxCell>
        <mxCell id="nnS-5rchoEb2h6VflhgT-49" value="Client checks if &lt;span style=&quot;background-color: rgb(103, 171, 159);&quot;&gt;nonce claim&lt;/span&gt; (inside &lt;span style=&quot;background-color: rgb(103, 171, 159);&quot;&gt;ID Token&lt;/span&gt;)&amp;nbsp;&lt;br&gt;is not the same value as in request&lt;br&gt;&amp;nbsp;to &lt;span style=&quot;background-color: rgb(103, 171, 159);&quot;&gt;/auth&lt;/span&gt; endpoint&lt;br&gt;&amp;nbsp;=&amp;gt; Client drops the flow" style="edgeLabel;html=1;align=center;verticalAlign=bottom;resizable=0;points=[];labelPosition=center;verticalLabelPosition=top;fontSize=12;" vertex="1" connectable="0" parent="nnS-5rchoEb2h6VflhgT-48">
          <mxGeometry x="0.0994" relative="1" as="geometry">
            <mxPoint x="-22" as="offset" />
          </mxGeometry>
        </mxCell>
        <mxCell id="nnS-5rchoEb2h6VflhgT-50" value="&lt;span style=&quot;background-color: rgb(255, 242, 204);&quot;&gt;AS/OP&lt;/span&gt;&amp;nbsp;validates &lt;span style=&quot;background-color: rgb(103, 171, 159);&quot;&gt;Authorization Code&lt;/span&gt;, &lt;br&gt;&lt;span style=&quot;background-color: rgb(103, 171, 159);&quot;&gt;Client ID&lt;/span&gt;, &lt;span style=&quot;background-color: rgb(103, 171, 159);&quot;&gt;Client Secret&lt;/span&gt;" style="html=1;verticalAlign=bottom;endArrow=block;labelBackgroundColor=none;fontFamily=Verdana;fontSize=12;elbow=vertical;edgeStyle=orthogonalEdgeStyle;curved=1;" edge="1" parent="nnS-5rchoEb2h6VflhgT-1" source="nnS-5rchoEb2h6VflhgT-19" target="nnS-5rchoEb2h6VflhgT-19">
          <mxGeometry x="0.1232" y="109" relative="1" as="geometry">
            <mxPoint x="770" y="520" as="sourcePoint" />
            <mxPoint x="770" y="559" as="targetPoint" />
            <Array as="points">
              <mxPoint x="831" y="520" />
              <mxPoint x="831" y="559" />
            </Array>
            <mxPoint as="offset" />
          </mxGeometry>
        </mxCell>
      </root>
    </mxGraphModel>
  </diagram>
</mxfile>
